<svg xmlns="http://www.w3.org/2000/svg" viewBox="0 0 500.26 410.42">
  <defs>
    <linearGradient id="linear-gradient" x1="188.74" y1="195.29" x2="304.62" y2="195.29" gradientUnits="userSpaceOnUse">
      <stop offset="0" stop-color="#939598"/>
      <stop offset=".3" stop-color="#f1f2f2"/>
      <stop offset=".75" stop-color="#f1f2f2"/>
      <stop offset="1" stop-color="#808285"/>
    </linearGradient>
    <style>
      .cls-11,.cls-2,.cls-3,.cls-5,.cls-6,.cls-7{fill:none;stroke:#010101}.cls-2,.cls-7{stroke-linecap:round;stroke-linejoin:round}.cls-2{stroke-width:1.27px}.cls-19{fill:#010101}.cls-20{fill:#002856}.cls-22{fill:#00062b}.cls-25{fill:#fff}.cls-27{fill:#939598}.cls-28{fill:#b9b9b9}.cls-29{fill:#bcbec0}.cls-30{fill:#a7a9ac}.cls-32{fill:#d1d3d4}.cls-33{fill:#231f20}.cls-35{fill:#808285}.cls-36{fill:#3b577e}.cls-3{stroke-width:1.31px}.cls-5,.cls-7{stroke-width:2.61px}.cls-6{stroke-width:1.96px}.cls-11{stroke-width:.65px}
    </style>
  </defs>
  <g style="isolation:isolate">
    <g id="Layer_1" data-name="Layer 1">
      <ellipse cx="243.09" cy="223.67" rx="221.68" ry="155.02" stroke-miterlimit="10" stroke="#002856" fill="#002856"/>
      <ellipse cx="243.09" cy="223.67" rx="215.32" ry="155.02" stroke-miterlimit="10" stroke-width=".99" stroke="#002856" fill="#fff"/>
      <ellipse cx="243.09" cy="223.67" rx="189.36" ry="155.52" stroke-width="4.43" stroke-miterlimit="10" stroke="#231f20" fill="#a7a9ac"/>
      <ellipse class="cls-20" cx="243.09" cy="223.67" rx="173.49" ry="142.48"/>
      <path d="M416.56 222.05c-.21-.57-.42-1.15-.64-1.7-1.44-4.59-3.91-9.48-7.9-14.44-8.38-11.77-18.88-18.81-26.21-22.64-2.53-1.47-4.59-2.39-6.19-2.96-.42-7.31-3.54-25.69-23.75-33.27-14.86-5.57-26.36-3.48-32.37-1.47-.33-.89-.67-1.95-.99-3.17-.18-.68-.42-1.39-.71-2.11-2.37-7.93-6.3-11.66-6.8-12.12-1.49-1.34-3.86-1.5-5.56-.39-.64.42-1.36.83-2.12 1.24-2.04.95-4.86 2.13-7.97 3.16l-10.6 1.63c-.01-.23-.02-.45-.03-.68-.16-5.11-.41-10.67-.75-15.75.4-2.49 3.86-12.13 7.02-20.11.38-.95.31-1.99-.19-2.89-.02-.04-1.94-3.69-1.46-8.05-14.72-3.34-30.22-5.13-46.24-5.13-14.68 0-28.94 1.5-42.55 4.32l1.63 19.68c.14 1.67 1.49 3.02 3.27 3.39.43.4 1.94 2.23 2.49 8.14-.38 4.85-.66 10.46-.86 17.09h-1.59c-.12 0-.24 0-.35.01l-2.18.16-16.28-1.44c-6.02-1.05-9.77-2.19-9.84-2.21-2.02-.63-4.26.18-5.22 1.87-.05.1-3.43 5.99-9.07 11.76-7.6-1.37-25.07-2.64-39.42 10.25-9.73 8.74-12.72 15.93-13.58 20.18-.19.41-.36.79-.51 1.14l-.32.11c-.12.04-.25.09-.36.15-.7.32-2.84 1.31-5.65 2.84-5.3 2.36-12.15 6.49-17.62 13.44-1.02 1.22-1.93 2.49-2.66 3.8-.62 1-1.22 2.04-1.77 3.14-1.69.97-3.3 2.05-4.84 3.23-1.1 0-2.18.38-3 1.09-.55.48-1.12 1.05-1.7 1.67-.97 6.11-1.48 12.34-1.48 18.66 0 8.15.85 16.14 2.45 23.92 4.1 2.94 9.13 4.65 14.44 5.57 12.49 3.71 24.4 3.24 34.72-1.38 2.82-.42 4.69-1.26 5.95-2.24.59-.29 1.18-.62 1.76-1 1.77.2 3.65.31 5.63.33.98.06 1.94.09 2.87.09.72 0 1.41-.02 2.09-.05 1.57 2.46 4.25 6.14 8.27 10.07 1.62 1.63 3.5 3.3 5.64 4.94l27.1 47.66c1.45 5.3 2.68 10.67 3.47 15.83.23 1.47 1.4 2.64 2.93 3.07.74.54 1.67.86 2.68.86.14 0 .29 0 .44-.02.73-.07 1.38-.3 1.94-.64l88.34.28c.42.94 1.26 1.74 2.41 2.13.5.17 1.02.25 1.53.25 1.4 0 2.74-.61 3.53-1.66.69-.08 1.35-.31 1.92-.67l.03-.02 8.66.03h.02c.16 0 .31-.01.47-.03.59.32 1.26.53 2 .56h.2c2.26 0 4.14-1.57 4.25-3.59l.24-4.5v-.35c-.03-.55-.04-1.11-.03-1.67.15-.96.32-2.02.53-3.16l26.8-51.08c5.36-5.37 9.88-10.88 13.22-15.52.47-.35.88-.78 1.15-1.3l.78-1.49c.58-.86 1.11-1.69 1.57-2.46 4.64 4.68 10.06 8 16.17 9.91 2.3.81 4.81 1.48 7.55 1.92 11.32 1.79 23.33-.77 35.76-7.59 2.16-1.06 3.46-1.84 3.6-1.92.29-.17.55-.38.79-.61.26-.26.5-.55.74-.84 1.56-7.69 2.39-15.58 2.39-23.64 0-.54-.02-1.08-.02-1.62Z" fill="#000b2e"/>
      <path class="cls-28" d="M263.56 285.52s-14.2 7.24-11.79 14.53c0 0-.02 4.86 3.24 0 3.26-4.84 6.53-13.74 8.55-14.54Z"/>
      <path class="cls-28" d="M276.55 274.23s-15.42 11.28-18.27 15.72c-2.85 4.44 12.98-6.43 18.27-15.72Z"/>
      <path d="M246 317.98c1.76-4.47 2.27-13.42 1.48-19.84-.43-3.5.8-5.84 2.14-7.31" stroke-width="1.21" fill="none" stroke="#010101"/>
      <path d="M254.25 292.84s-2.64.58-3.54 4.97l1.11.24 1.48-3.81" stroke-width=".59" fill="none" stroke="#010101"/>
      <ellipse class="cls-25" cx="252.46" cy="342.47" rx="131.6" ry="40.6"/>
      <path class="cls-25" d="M426.2 215.68c-.01-.3-.06-.59-.13-.88-.75-2.85-1.63-5.55-2.59-8.13-1.48-5.14-4.03-10.62-8.14-16.19-8.63-13.19-19.44-21.09-27-25.38-2.61-1.65-4.73-2.68-6.38-3.32-.43-8.19-3.64-28.8-24.46-37.3-15.31-6.25-27.15-3.9-33.34-1.65-.34-1-.69-2.19-1.02-3.56-.18-.76-.43-1.56-.73-2.37-2.45-8.89-6.49-13.07-7.01-13.58-1.53-1.5-3.97-1.68-5.73-.43-.66.47-1.4.93-2.18 1.39-2.1 1.06-5.01 2.38-8.21 3.54l-10.92 1.83c-.01-.26-.02-.5-.03-.76-.16-5.72-.42-11.96-.78-17.66.41-2.79 3.98-13.6 7.23-22.55.39-1.06.32-2.23-.2-3.24-.02-.04-2.12-4.37-1.47-9.44.68-5.3-1.51-8.51-3.63-11.61-1.34-1.96-2.73-3.99-3.86-7.07-4.41-11.98-16.13-13.35-46.03-13.97-28.09-.61-37.38 17.12-38.34 26.57-.02.24-.03.48 0 .72l2.05 26.93c.14 1.87 1.54 3.39 3.37 3.8.44.45 2 2.5 2.56 9.13-.39 5.44-.68 11.73-.89 19.16h-1.63c-.12 0-.24 0-.37.01l-2.24.18-16.77-1.61c-6.2-1.18-10.07-2.45-10.14-2.48-2.09-.7-4.39.2-5.38 2.1-.06.11-3.53 6.71-9.34 13.19-7.83-1.53-25.83-2.96-40.61 11.49-10.02 9.8-13.1 17.85-13.98 22.63-.19.45-.37.88-.53 1.28l-.33.13c-.13.05-.25.1-.38.16-.72.35-2.93 1.46-5.82 3.19-5.46 2.64-12.51 7.28-18.15 15.06-1.05 1.37-1.98 2.79-2.74 4.26-.64 1.12-1.25 2.29-1.82 3.52-1.74 1.09-3.4 2.29-4.99 3.62-1.13 0-2.25.42-3.09 1.23-2.88 2.75-6.33 7.55-8.67 13.43-.17.31-.35.6-.51.91-.28.55-6.14 12.53-.15 26.46.18.6.35 1.19.55 1.8.24.74.7 1.39 1.31 1.9.07.13.14.25.21.38.28.47.64.88 1.08 1.21.27.21 2.02 1.52 4.97 3.17 4.3 3.51 9.67 5.53 15.33 6.59 12.87 4.16 25.14 3.63 35.77-1.55 2.9-.47 4.83-1.41 6.12-2.51.61-.33 1.21-.7 1.81-1.12 1.82.22 3.76.35 5.8.37 1.01.07 2 .1 2.95.1.74 0 1.46-.02 2.15-.05 1.62 2.75 4.38 6.89 8.51 11.29 1.67 1.83 3.6 3.7 5.81 5.53l15.48 12.65c1.49 5.94 15.19 52.74 16.01 58.51.23 1.65 1.44 2.96 3.02 3.44.76.6 1.72.97 2.77.97.15 0 .3 0 .45-.02.75-.07 1.42-.34 2-.72l91 .32c.44 1.06 1.3 1.95 2.48 2.39.52.19 1.05.28 1.58.28 1.44 0 2.82-.69 3.64-1.87.71-.09 1.39-.35 1.98-.75l.03-.02 8.92.03h.02c.16 0 .32-.01.48-.03.61.36 1.3.59 2.06.62h.21c2.33 0 4.27-1.76 4.38-4.02l.25-5.04v-.39c-.03-.62-.04-1.24-.03-1.87.15-1.08 18.54-48.63 18.75-49.91l9.4-10.89c5.52-6.02 10.18-12.19 13.62-17.4.49-.39.9-.87 1.19-1.46l.81-1.67c.59-.97 1.14-1.9 1.62-2.75 4.78 5.24 10.37 8.97 16.65 11.11 2.37.91 4.96 1.66 7.78 2.15 11.66 2.01 24.03-.86 36.84-8.51 2.22-1.19 3.56-2.06 3.71-2.15.3-.2.57-.43.81-.68 5.59-6.05 5.36-19.52 5.25-22.16Z"/>
      <path d="M210.36 114.08s-23.64.88-34.28-3c0 0-7.29 12.47-11.1 14.95 0 0-22.63-7.47-39.98 9.48-14.37 14.05-13.02 23.73-13.02 23.73l-3.33 1.27s-24.68 12.09-26.4 25.54c0 0-27.34 11.12-16.81 42.88 0 0 27.88 22.53 53.9 8.52l3.01-4.15 18.64.39s7.92 17.65 28.2 27.01c0 0 15.51 35.62 19.73 65.44l113.53.4 2.69-4.79s5.49-43.88 18.85-55.05c13.36-11.17 24.41-26.83 28.43-34.83l4.66-.62s21.53 29.87 60.91 3.42c0 0 11.08-23.35-10.14-46.5-21.22-23.14-30.21-23.18-30.21-23.18s1.36-27.14-21.83-36.61c-20.55-8.39-33.96.2-33.96.2s-1.65-2.89-2.96-8.34c-1.31-5.45-6.95-13.48-6.95-13.48s-13.34 7.64-24.33 7.93l-77.24-.59Z" fill="#e6e7e8"/>
      <path class="cls-25" d="M399.21 192c-4.72-2.32-9.09-3.64-12.93-4.36l.61-.04c.46-2.56 8.66-2.5 8.66-2.5-9.05-1.58-16 0-20.19 1.54 2.24-3.28 4.73-5.53 4.73-5.53s3.93-1.26 2.49-1.45c-1.35-.19-6.32 1.9-8.78 7.55-1.93.26-.43.04-.57.08l-2.33 1.48 1.6.42c.12-.04 10.44-3.01 25.74 4.49.03.02 3.51 2.1 7.11 5.09-1.58-3.4-5.91-6.64-6.13-6.76Z"/>
      <path class="cls-20" d="M321.73 243.93s19.35-10.18 18.72-20.76c-.62-10.58-11.15-44.26-15.13-50.04-3.97-5.78-14.21-27.61-33.17-33.76 0 0-13.64-.69-42.33 12.99 0 0-40.22-17.12-45.55-15.54 0 0-32.33 9.82-38.15 51.13l3.98 5.46-3.05 13.77-2.39 16.65c-.67 1.6-2.02 6.72-1.03 8.97.99 2.25 6.57 23.42 21.86 30.19 15.29 6.78 56.18 22.95 62.13 33.86 0 0 12.68-8.29 14.35-9.88 1.67-1.59 31.72-25.2 45.74-34.12l14.01-8.92Z"/>
      <path class="cls-36" d="M280.67 251.22c-2.76-1.05-6.44-2.37-9.83-3.34 0 0-2.26-.83-2.59-.1-.24.54.89.85 1.84 1.06 4.82 2.24 19.18 9.09 20.75 13.61l3.11-2.69c-1.67-3.78-7.59-6.61-13.29-8.53Z"/>
      <path class="cls-25" d="m133.99 177.15-12.89 5.08-10.27 14.49s-12.05 17.04 3.44 29.92c15.49 12.87 34.16 6.1 34.16 6.1s4.88.02 8.89-4.67c4.01-4.68 9.37-12.36 9.37-12.36l1.82-12.38.04-11.11s-15.93-12.02-17.71-11.17c-1.78.85-11.69 2.71-11.69 2.71s-6.07-2.78-4.72-8.33l-.45 1.71Zm201.41 31.9c-4.42-5.57-2.88-9.54-4.2-12.53-1.32-3-.58-13.97-.58-13.97s5.82-2.17 12.89-2.95c10.02-1.1 21.31-1.21 23.97.51 2.65 1.72 5.31 3.44 4.86 5.57-.46 2.13-2.68 4.26-1.8 7.25.88 3 3.1 3.43 3.53 5.57.44 2.14-3.57 5.54-3.58 8.53-.01 2.99.87 4.71.41 7.69-.45 2.99-3.12 3.83-2.69 6.83.43 2.99 6.64 5.58-1.81 7.68-8.44 2.11-22.64 1.2-22.64 1.2l-3.3-7.27s-2.88-.44-5.5-12.41l.45-1.71ZM289.94 67.41s-7.51 20.63-7.52 24.23c-.01 3.61.78 13.23 1.15 26.45.37 13.23 2 20.85 2 20.85-9.57-.43-37.93 11.89-37.93 11.89-10.38-6.85-39.92-14.17-39.92-14.17 12.55-59.27-.75-59.27-.75-59.27l-2.05-26.93s2.39-23.42 33.88-22.76 38.85 2.63 41.99 11.16c3.14 8.53 8.1 10.29 7.27 16.74-.83 6.46 1.88 11.81 1.88 11.81Z"/>
      <path class="cls-32" d="M332.21 181.1s-.03 7.43 3.43 11.15l16.2.06-17.76 4.39s-5.84 14.83 20.02 10.46l-16.99 3.28s-12.31-9.32-4.9-29.35Z"/>
      <path class="cls-29" d="M156.68 184.57s4.98 9.3-2.36 11.87c-2.48.87-1.78 1.41-.39 1.11 0 0-1.55 1.48-.79 3.34.76 1.86 1.53 4.46 3.45 6.7 1.92 2.23-1.95 6.68-2.73 8.16-.78 1.48.37 3.71.37 3.71s.38 2.6-2.33 5.56c-2.71 2.96 1.9 6.69 1.9 6.69s9.28-6.28 10.46-11.84c1.18-5.57 4.68-13.72 4.68-13.72l1.96-7.79s.41-5.2-1.13-5.94c-1.54-.75-10.78-6.35-13.09-7.84Z"/>
      <path class="cls-30" d="M220.23 108.68s9.12 26.02 27.15 32.03c18.03 6.01 27.31-12.89 33.66-36.26l-13.69 15.17s-14.75 5.88-17.33 5.5c-5.39-.8-17.61-.44-17.3-4.15l-12.48-12.3Z"/>
      <path class="cls-30" d="M256.83 122.67c9.35-1.27 6.87-12.41 6.87-13.46 0-1.05 1.08 1.4 7.61-2.06s10.2-17.72 10.2-17.72c0 2.44-.05 14.28-.06 16.36 0 2.09-2.91 6.93-13.44 14.23-13.64 9.46-19.62 1.45-19.62 1.45s4.51 1.74 8.44 1.2Zm-41.55-29.65s3.23 7.33 7.19 11.52c3.96 4.19 6.12 9.08 6.84 10.12.72 1.05 1.46-3.13 2.19-6.26.74-3.13-.38 14.97 12.41 14.82 0 0-7.38 2.32-14.98-5.43-4.4-4.49-12.26-10.84-12.25-11.88 0-1.05-.68-10.45-1.4-12.89Z"/>
      <path class="cls-29" d="M115.56 192.16s-12.04 21.49 7.58 35.3c0 0 15.29 5.29 21.94 5.65.43.02.83.03 1.18 0 5.79-.35-23.91-1.2-23.91-1.2s-14.63-8.22-15.76-16.02c-1.13-7.8-.69-20.42 8.96-23.73Z"/>
      <path class="cls-32" d="M369.93 204.62s-5.41 3.32-3.89 8.53c1.52 5.2-1.95 3.71-1.19 7.05s3.06 7.07-.8 7.79c-3.86.73-20.06 1.04-20.06 1.04s23.51 3.06 24.31-2.51q.79-5.57 1.97-10.02c1.18-4.45-.34-11.88-.34-11.88Zm.84-19.67s-9.27 3.68-7.35 6.29 6.54 4.85 7.69 5.97c1.16 1.12-1.12-10.77-.34-12.25Z"/>
      <path class="cls-35" d="M188.47 143.1s-27.44 14.38-32.1 23.28c-4.66 8.89-5.05 8.52-5.45 12.6-.4 4.08-.4 2.6-.4 2.6s12.71 6.73 13.86 7.84c1.15 1.12 12.88-39.31 24.09-46.32Z"/>
      <path class="cls-28" d="M288.03 134.54c1.16.38 5.39 3.73 9.65.03 4.26-3.7 3.5-8.53 6.99-12.97 3.49-4.44 4.29-12.23 4.29-12.23l-8.12 4.05-12.81 21.12Z"/>
      <path class="cls-35" d="M147.98 243.19c1.15.74 9.64.03 12.34 1.53 2.7 1.5 14.6 14.9 13.47 7.1-1.13-7.8-10.35-18.23-11.11-19.71-.76-1.49-7.72 2.2-8.89 4.42-1.17 2.22-8.85-5.23-6.56 1.09s.75 5.57.75 5.57Z"/>
      <path class="cls-28" d="M181.74 111.95s6.2 3.01 9.73 8.15c3.53 5.14 4.41 7.28-1.82 11.53 0 0 9.72-.53-1.18 11.46 0 0 13.58-4.58 15.37-7.57 1.79-2.98.97-21.36.97-21.36l-23.07-2.22Z"/>
      <path class="cls-27" d="M372.67 213.88s19 24.42 44.33 16.82l1.77 2.14s-23.16 18.72-47.98 8.38l-11.95-9.44 10.22-2.53s3.15-11.1 2.71-12.38c-.44-1.28.46-4.27.46-4.27l.44 1.28ZM74.9 191.47s-12.07 21.74-3.24 35.02c0 0 14.18 8.17 38.19-2.86l13.15 7.45c-.93-1.24 5.24 5.25-3.88 6.68-7.99 1.25-39.54 7.98-51.02-7.87-11.48-15.85-.76-33.75 5.03-39.29l1.77.86Zm258.55-54.2s1.32 4.28 7.1-.4c0 0-.04 10.68-5.37 12.8l-4.42-5.14s-11.55 1.24-16.43.8c-4.88-.45-6.2-4.29-6.2-4.29s14.21-2.94 19.98-1.64l5.34-2.12Zm-183.33.21-5.78 1.26s7.96 9 9.7 17.12l.92-8.54s23.53-2.05 24.01-11.02c.48-8.97-1.75-5.99-8.87-3.02-7.11 2.97-12.89 4.23-12.89 4.23s-2.69 5.97-7.1-.03Zm193.03 19.05s16.41 3.9 17.68 20.57l-10.21-.04s-2.16-14.53-8.8-20.96l1.33.43Zm-189.11.61s-10.19-4.31-14.2-1.76c0 0 1.75 6.41-3.57 6.4l2.65 4.28s-9.33 1.25-13.37 13.2c0 0 7.54.45 9.78-3.39 2.23-3.84 4.02-6.82 4.02-6.82s15.57-8.06 14.69-11.91ZM324.98 263.7s-4.02 6.39-9.8 9.37c-5.78 2.97-28.04 20.83-29.85 30.23-1.81 9.39.41 7.69 6.22-2.11 5.81-9.81 8.03-10.23 15.59-14.05 7.56-3.81 13.81-12.34 17.84-23.43Zm-153.14-.97s25.72 19.72 28.38 36.28c0 0-4.98-4.16-11.18-5.89-6.21-1.73-9.28-12.43-10.6-13.28-1.33-.86-6.6-14.98-6.6-14.98v-2.14Z"/>
      <path class="cls-28" d="M307.27 252.1s8.02-6.38 13.8-8.5c5.78-2.12 17.8-13.18 12.9-7.22-.11.13-.14.31-.21.46-7.2 15.97-17.77 27.53-23.88 29.79-8 2.96-.86-6.41-.86-6.41s12.94-17.04-1.75-8.12Z"/>
      <path class="cls-32" d="M328.88 172.71s-.04 8.54-2.27 11.53c-2.23 2.98-1.79 4.27 1.3 7.69l3.1 3.43-2.18-9.83 1.35-4.27 4-1.27-4.86-8.56-.45 1.28Z"/>
      <path class="cls-28" d="M336.19 233.83s3.51 11.55-.97 20.93c0 0 12.93-15.33 11.18-19.61-1.76-4.28-10.21-1.32-10.21-1.32Z"/>
      <path class="cls-35" d="M319.62 156.87s15.54.91 17.67 22.28l-3.11-.44-14.57-21.84Z"/>
      <path class="cls-36" d="M194.5 141.48s-35.26 50.72-12.27 74.72c0 0 13.24 20.13 56.32 15.15 0 0-11.11 3.81-21.32 4.2-10.21.39-43.5-.15-49.68-10.43l.93-11.11.48-10.68-.84-11.96-4.86-4.72s14.35-39.26 31.24-45.18Zm91.45-1.82s22.6 11.61 33.15 38.99c10.55 27.38 17.14 44.49-42.38 55.39l9.32.89s44.38 1.86 47.99-12.22c3.6-14.09 0-1.28 0-1.28l-3.5-11.98-.84-14.53-3.69-5.3c-.8-6.14-2 1.64 1.08-6.67 1.8-4.85.04-11.53-3.05-14.96-3.09-3.43-17.38-25.35-28.47-27.1s-9.6-1.23-9.6-1.23Z"/>
      <path class="cls-22" d="M320.21 233.35s2.18 9.83-12.94 18.75c0 0 10.25-9.79 16.92-12.33 6.67-2.54 12-4.23 12.47-9.35.46-5.13-2.2-4.28-2.2-4.28l-14.23 7.21Zm-139.82-.07s-4.07 12.56 3.88 22.85c7.95 10.28 19.95 13.97 19.95 13.97s-13.31-1.75-18.62-5.62c-5.31-3.86-16.35-20.14-18.99-25.7-2.64-5.56-3.52-8.13-3.52-8.13l4.46-5.54 12.84 8.16Z"/>
      <path class="cls-22" d="M311.73 248.27s-46.68 18.63-63.21 44.64l.43 2.99s8.91-7.66 11.13-9.36c2.23-1.7 29.39-23.39 31.17-24.67 1.78-1.28 20.47-13.6 20.47-13.6Zm-125.66 9.38c1.33 1.28 12.84 7.73 29.69 14.2 16.84 6.47 24.79 18.03 24.79 18.03l-15.06-8.17s-25.67-11.31-27.45-11.75c-1.77-.43-14.69-13.7-14.69-13.7l2.72 1.38Z"/>
      <path class="cls-36" d="M191.38 143.6s25.04-4.14 51.9 6.41c.15.06.3.12.46.18 27.04 10.78-29.69-12.92-40.35-12.53s-12.01 5.94-12.01 5.94Zm60.34 8.33s35.56-11.41 49.74-4.95l-11.96-7.73s-33.33 8.85-37.78 12.68Z"/>
      <path class="cls-36" d="M234.4 152.65s11.87 5.95 15.92 16.53c0 0 .57-17.82-15.92-16.53Zm15.81 56.38s2.88 7.28-4.66 14.45c-7.54 7.17 14.13 8.45 4.66-14.45Z"/>
      <path class="cls-19" d="m164.02 135.31-2.66-.23 6.03-4.44 5.61-7.22s2.01-1.27 3.11.24c1.1 1.5 3.5 6.65 3.26 8.14 0 0-.01 1.49-2.68 1.69-2.67.19-12.67 1.83-12.67 1.83Zm147.86-21.2s2.75.4 3.35 14.21c.15 3.52-3.18 9.59-.3 9.61l-7.79 2.08s-3.06-5.79-1.26-8.98c1.8-3.19 4.92-4.45 5.38-6.58.46-2.13 2.01-6.44.61-10.33Zm-10.5-2.35s2.13 10.7-2.34 14.51c-4.47 3.81-4.5 8.09-3.18 8.95 1.32.86-7.84 4.03-7.84 4.03-1.01.42-4.34-9.74-3.83-15.68.33-3.76-.02-8.92-.02-8.92l17.21-2.88Zm-99.55 2.52s3.48 9 1.23 12.4c-2.25 3.4 2.61 6.86.82 8.98s5.34 4.66 6.36-.14c1.02-4.8 1.84-15.29 1.84-15.29l.55-6.34h-5.92l-4.89.39Zm150.31 117.27-8.32-.7-2.95-5.15s-3.38 7.03-5.72 7.97l.99.65s10.67-1.84 3.6 8.36c0 0 11.4-10.17 9.02-4.1l3.39-7.02Zm-191.73-5.26-1.34.31s-5.7 5.08-9.05 7.3c-3.35 2.22-8.99-.38-8.99-.38l4.6 7.08c1.7-4.15 9.66-1.21 9.66-1.21l2.32 1.94c-2.95-5.47 4.41-10.54 4.41-10.54l.34-.96-1.97-3.54Zm39.1-87.51s-27.2 15.18-31.49 51.89l-5.74-3.89s9.59-33.68 37.23-48Zm-30.2 57.45s5.32.89 3.95 5.58-2.71 5.53-2.71 5.53 5.26 8.58-.99 12.81l-1.8 2.98s1.71 8.13-4.07 9.37l-3.05-7.71s2.68-2.54 2.72-6.82c.03-4.27 7.56-1.23 4.1-13.21l1.84-8.53Zm157.19-6.52s-4.02 3.39 1.7 8.98l1.36-3.41s.91-2.56-3.06-5.58Zm-26.7-46.77s25.14 19.84 26.75 41.21c0 0 5.4-9.36 1.47-17.08-3.93-7.72-22.91-21.1-28.22-24.13Zm71.33 72.73s8.74 18.01-9.48 19.58l-4.84-5.16s7.09 1.76 11.12-3.34c4.04-5.1.03-3.85 1.39-6.4 1.35-2.55 1.81-4.69 1.81-4.69ZM105.7 212s3.66-14.07 8.12-16.17l-.42-2.99s-8.47 3.78-7.7 19.17Zm53.58-38.91s3.77-4.85 3.1.45c-.24 1.89-7.16 6.78-4.98 11.92l-1.76-1.72s.95-7.26 3.64-10.66Z"/>
      <path class="cls-19" d="M166.95 157.34s9.37-5.48 13.8-5.45l13.19-11.44s-14.02 4.6-26.99 16.89Zm159.42-6.94s-3.99-.03-2.24 2.55c1.75 2.58 11.46 9.91 12.76 13.77 0 0-8.76-15.02-10.53-16.31Zm-143.26-14.73s6.69-3.79 10.24-3.34c3.55.45 10.12-2.06 10.24-4.2.19-3.36-15.55 1.17-20.48 7.54Zm116.86-14.09s5.77-.38 7.15-6.36c0 0 1.72 6.85-8.08 11.05l.93-4.69Zm-108.99.69s-3.31-1.95-1.52-3.64c1.79-1.7 2.66-.2 4.87 1.53 2.2 1.72 1.3 3.64 5.75 2.82 0 0-.7 4.05-9.1-.71Zm-40.37 52.25s4.02-3 2.67-.66c-1.35 2.34-2.71 6.43-1.84 7.51l-2.44-.23s.47-3.84 1.6-6.61Zm-43.49 41.27s-.14 3.06 2.91 10.34c.97 2.31 3.51 4.73 6.61 5.6 0 0-1.81 4.26.4 5.13 2.21.87 7.15-.1 11.08-4.51 1.09-1.23-1.27-.97-1.27-.97s-9.32-.5-12.38-5.65c-3.07-5.15-7.35-9.95-7.35-9.95Zm167.66-98.2s-7.1 20.62-16.73 30.77l7.53-4.02c.59-4.3 10.72-22.59 11.1-25.01 1.19-7.5-1.9-1.74-1.9-1.74Zm-55.5-5.09s-.78 2.95 1.69 9.56c2.47 6.61 9.4 14.69 9.35 21.29l6.91 1.87c-11.84-11.65-17.95-32.73-17.95-32.73Zm-.19 27.44s.94.81 1.25.3l-1.25-.3Zm-.38-8.2s-3.07-4.07.22 3.41c1.49 3.38 1.67 4.68 1.41 5.09l5.98 1.46c-5.6-4.71-7.62-9.96-7.62-9.96Zm57.38.24c-6.15 9.96-6.28 10.7-6.28 10.7l5.92-1.34c3.05-1.74.95-4.97 1.81-7.26.86-2.29-1.44-2.1-1.44-2.1Z"/>
      <path class="cls-19" d="M220.79 109.93s10.43 22.92 21.49 25.18c0 0 9.47 3.96 14.8.58 0 0 7.78.52 12.85-7.52 5.06-8.04 8.93-16.15 11.11-24.21l-4.45 6.24-7.63 6.47-1.68 2.01s-6.57 6.63-12.63 5.34c-6.05-1.29-6.51-1.45-6.51-1.45l-1.52 1.08s-11.99 1.31-14.69-2.75c-2.7-4.06-3.46-3.6-4.06-4.38-.6-.78-6.62-6.58-7.08-6.58Zm140.63 80.7c-2.23-2.31-9.84-4.29-4.85-3.93 4.99.36 7.98 3.25 7.98 3.25s-2.29 1.55-3.14.68Zm6 15.4c-1.06 1.14-4.85 1.04-6 .24-1.57-1.09-.1-1.79-3.63-3.19 0 0-.37-.92.26-.73.62.2 1.35.5 2.07 1 .73.5 3.11 2.3 4.25 2 1.14-.3 3.62.08 3.05.69Z"/>
      <path class="cls-22" d="M332.69 215.44c-3.67 4.97-6.26 11.67-19.77 14.56-15.49 3.31-25.93 4.3-30.99 4.3-.75 0-1.4-.21-1.83 0-.91.44 1.21 1.1 1.21 1.1 9.16 1.84 38 5.29 58.53-13.71l-7.15-6.26Zm-84.12 72.06c-1.62-5.78.67-9.09.67-9.09 3.78-10 4.03-21.73 3.55-29.08 0 0 .97-1.06.97 0s2.01 19.01-2.59 28.15c-2.42 4.82-2.1 5.75-2.38 7.35-.14.83-.23 2.67-.23 2.67Z"/>
      <path class="cls-19" d="M104.14 235.49h.03-.03Z"/>
      <path class="cls-36" d="M233.9 248.62s-6.15.92-12.69 4.39c-6.47 3.44-17.4 10.77-26.01 4.94l-1.09-.44s-.52 8.97 9.27 6.48c9.79-2.48 17.35-10.17 25.23-12.37 6.68-1.87 5.29-2.99 5.29-2.99Z"/>
      <path class="cls-19" d="M149.97 197.27s3.3.58 5.35-1.37c2.05-1.96 4.58-.6 4.58-.6s-2.67.75-4.19 2.41c-1.52 1.66-1.77 1.94-5.74-.43Zm9.07-6.64s-3.1-2.54-2.16-3.8c.95-1.26 2.31 1.96 2.16 3.8Zm-8.87 13.89s2.78.88 4.81 2.85c2.03 1.97 3.12 1.9 3.12 1.9s-2.88-6.63-7.93-4.75Zm-1.75 10.58s1.71 1.2 4.89-.04c3.18-1.24 3.05-3.33 5.21-3.46 0 0-.57-.49-2.03 2.22-1.45 2.71-4.45 2.63-8.07 1.28Zm1.17 12.08s3.1 1.64 5.13-.57c2.03-2.22 3.13-2.02 3.13-2.02s-5.52 2.96-8.26 2.6Z"/>
      <path class="cls-19" d="M149.4 233.1s2.55-2.52 2.69-4.62c.13-2.1 2.61 2.46-2.69 4.62Zm2.54-14.03s2.71-.17 3.66 1.87c.95 2.04 2.21-3.54-3.66-1.87Zm209.24-39.49s-2.05 1.1-3.21 2.64c-1.16 1.55-3.27 1.09-3.27 1.09s1.16-.37 2.12-1.89c.96-1.52 2.03-2.46 4.36-1.85Zm-128.46-74.43-.45.21s-2.01 5.56.19 8.33c1.76 2.21-1.09-5.77.25-8.54Zm30.75 3.14c3.08 4.86-.93 9.4-.25 6.62l.25-6.62Zm-128.19 76.55.31 1.07c.34 0 4.1.68 12.53-2.68l-.21-2.52c-3.16-.13-12.55 4.14-12.63 4.14Zm-29.73 29.04c.05.21.4 21.24 30.29 20.56l.5-2.49c-23.24.43-29.39-18.07-29.59-18.85l-1.21.78Zm231.38 17.21-2.73-5.43-2.21-.87c-5.3-3.46-2.57-11.98-2.57-11.98-2.66-.45-3.93-7.29-3.93-7.29-1.73-5.57 4.5-10.95 4.5-10.95l2.19 3.43c-.9 4.14 3.04 11.44 3.04 11.44l.29.6s.87 7.78 5.15 10.87c0 0 1.07 7.37 2.95 9.03l-6.68 1.16Zm-227.9-55.44c-1.23-.39.45 1.61.45 1.61s4.88 3.52 6.11 9.44l1.44.99c.61-7.1-6.77-11.64-8-12.04Z"/>
      <path class="cls-22" d="M226.68 234.41c-1.4.21-4.35.57-7.17.85-5.67.11-14.87-.16-27.41-1.98-22.38-3.25-25.09-17.01-25.09-17.01l-4.35 7.5c15.64 16.41 37.92 16.13 51.52 13.95h.01s14.8-1.55 15.59-3.08c.65-1.24-.3-.65-3.1-.23Z"/>
      <path class="cls-19" d="M290.89 262.58v.01-.01Zm-.03-.08s.02.05.03.08c0-.03-.02-.05-.03-.08Zm-.01-.03v.03-.03Zm.05.13c.05.13.12.33.19.55-.05-.16-.12-.34-.19-.55Zm-.05-.13v-.03.03Zm.44 1.26c.03.1.06.17.07.21-.02-.05-.04-.12-.07-.21Zm.08.22c.03.08.03.09 0 0Zm-.12-.35s.03.09.05.14c-.01-.04-.03-.09-.05-.14Zm-.16-.46s0 .03.01.04c0-.01 0-.02-.01-.04Zm.01.04c.03.08.06.16.08.24-.03-.07-.05-.15-.08-.24Zm.08.24c.02.07.04.13.06.18l-.06-.18Z"/>
      <path d="M283.58 78.27c.75 8.45-1.92 24.07-1.92 24.07 0 .73-1.45 3.85-5.55 7.46-4.1 3.62-9.94 9.2-9.94 9.2s-2.11 4.63-7.97 5.12c0 0-6.51 1.12-9.76-1.54-3.07 2.61-9.78 1.39-9.78 1.39-5.86-.58-7.9-5.24-7.9-5.24s-5.76-5.67-9.8-9.35c-4.04-3.68-5.32-6.82-5.43-7.55 0 0-2.42-15.66-1.54-24.09" stroke-width="1.85" fill="none" stroke="#010101"/>
      <path d="M214.05 85.48c-.83 8.81-1.31 19.99-1.54 34.85-.1 6.6-.9 14.62-3.27 16.06m73.77-47.47c.68 9.5 1.09 22.46 1.17 31.97.05 6.6-.33 15.46 4.59 17.62" stroke-width="1.81" fill="none" stroke="#010101"/>
      <path class="cls-7" d="M210.3 114.4c-19.37.48-34.55-4.65-34.55-4.65s-9.87 19.1-25.24 25.71c0 0 .03 3.91 1.2 4.4 1.16.49 12.85-4.39 21.95-17.3"/>
      <path class="cls-19" d="M138.21 184.57c-5.06-2.44-4.78-5.07-4.71-7.68.12-4.71 3.84-9.26 6.35-10.33.69-.29 1.46-.56 2.27-.85 3.3-1.16 7.4-2.6 10.24-6.81 3.3-4.89.37-10.56.34-10.62l-1.12-2.13 2.47-.13c15.27-.8 19.99-6.12 20.04-6.17 2.41-2.53 3.54-5.2 3.41-8-.26-5.48-5.2-9.85-5.25-9.89l2.16-2.31c.24.21 5.98 5.25 6.31 12.04.18 3.67-1.23 7.1-4.2 10.21-.16.19-5.14 5.82-20.1 7.08.83 2.62 1.58 7.25-1.36 11.62-3.43 5.08-8.29 6.79-11.84 8.04-.76.27-1.49.52-2.08.77-1.5.64-4.33 4.18-4.42 7.56-.06 2.48 3.14 4.73 5.99 6.1l-4.51 1.5Z"/>
      <path class="cls-3" d="M178.56 134.14c-4.98-1.48-20 2.74-20 2.74"/>
      <path class="cls-2" d="M181.63 138.05s9.08-11.63 26.73-11.98"/>
      <path class="cls-11" d="M190.81 121.57s.82 2.09 8.81 1.99m-37.78 30.42c-.42.93-1.13 1.53-1.6 1.34-.46-.19-.5-1.11-.08-2.04.42-.93 1.13-1.54 1.6-1.34.46.19.5 1.11.08 2.04Z"/>
      <path class="cls-6" d="M205.17 136.1s-30.86 8.58-43.52 50.95"/>
      <path class="cls-2" d="M161.35 162.85s17.63-18.94 36.82-24.24m117.73 15.45s14.93 6.52 18.53 14.56m-8.18-18s13.22 12.91 13.42 28.3"/>
      <path class="cls-5" d="M112.47 195.81c3.72-7.66 8.77-14.67 8.77-14.67 5.67-.92 13.36-5.67 13.36-5.67m13.28 6.51s5.99-.28 9.96 3.6c0 0 9.63 3.92 11.26 8.09 0 0 .94 6.74-2.42 10.56 0 0 2.64 3.22 1.6 7.7s-5.04 5.73-5.04 5.73 1.62 5.46-3.73 8.3c0 0-3.7 5.1-7.38 6.35l-1.67 1.27c-5.33.92-14.65-.43-14.65-.43"/>
      <path class="cls-3" d="M113.5 192.3s-8.01 2.5-7.81 19.17c.2 16.66 11.12 24.75 20.48 20.34"/>
      <path class="cls-2" d="M154.38 201.57s8.65 1.35 12.3 2.66"/>
      <path class="cls-5" d="m156.29 227.54 5.68-2.52s4.27 27.36 27.14 40.34"/>
      <path class="cls-2" d="m155.99 218 6.33-.9"/>
      <path d="M321.7 128.3c10.21-3.36 25.96-3.78 38.39 4.1 16.89 10.7 17.64 32.38 17.64 32.38s33.56 11.34 44.08 51.06c0 0 .55 14.1-4.15 19.2 0 0-38.03 24.92-61.1-4.09m-214.65 3.21s6.1 16.03 25.21 25.38c0 0 4.5 4.3 6.03 8.82 0 0 12.74 30.21 15.92 49.78 0 0 .75 3.61 1.29 8.74m161.51-96.58s-7.53 17.47-24.9 33.27l-.34.44s-22.34 34.35-21.19 58.07l-.25 5.04M162.32 126.94c-8.92-1.84-19.35-1.36-29.46 4.82-17.06 10.45-22.44 29.11-22.44 29.11s-20.01 4.34-28.83 24.78c-5.72 3.31-11.91 8.84-16.79 18.14 0 0-6.43 12.77 1.78 26.61 0 0 25.36 19.42 55.45 4.26" stroke-width="3.92" fill="none" stroke="#010101"/>
      <path class="cls-2" d="M354.22 192.74c-4.53.42-13.28 1.43-19.68 3.44 0 0-3 .62-2.69 3.18 0 0-.4 8.33 3.92 9.96 0 0 12.32.41 19.66-1.78m3.95 8.86s1.46 2.71 4.94 2.11"/>
      <path d="M327.87 169.54s2.62 5.79-.09 11.22c-2.7 5.43-3.38 7.02-.75 10.57 2.64 3.54 4.26 8.04 4.26 8.04" stroke-width="1.27" fill="none" stroke="#010101"/>
      <path d="M370.87 190.68s2.74 1.22 5.15 4.23" stroke-width=".95" stroke-linecap="round" stroke-linejoin="round" fill="none" stroke="#010101"/>
      <path class="cls-6" d="M293.37 139.8s27.54 11.1 40.97 39.4"/>
      <path class="cls-6" d="M201.83 137.74s30.61 3.21 47.49 14.87c0 0 26.22-14.21 44.19-12.79"/>
      <path class="cls-5" d="M339.79 222.9c-1.03 8.93-5.09 11.34-10.19 16.21l-.17.08c-30.41 14.51-77.59 56.34-77.59 56.34s-1.6 1.18-3.06 2.18l-.18-.26s-13.35-14.76-59.5-32.09"/>
      <path class="cls-2" d="M149.33 181.48s-1.54-7.1 6.49-10.43m-.42 12.33s.74-12.32 16.17-20.52"/>
      <path class="cls-19" d="M130.08 214.02c-3.01 0-6.66-1.51-6.86-1.57 1.72.46 6.79.99 8.83.26 2.77-.99 4.49-1.09 7.36-.45 2.63.59 4.52 1.02 4.53 1.01-.08 0-1.98.64-4.78.01-2.66-.6-4.17-.5-6.73.41-.64.23-1.46.32-2.35.32Zm16.96 9.01s-3.49-.59-4.54-.78c-.76-.13-4.92-.47-7.5-.32.67-.04 6.56-.92 7.7-.72 1.13.2 4.2 1.77 4.34 1.82Zm-20.45-27.93c.27-.06 6.55-1.89 10.65-1.77 4.08.13 7.76-.12 8.44-.52-1.05.63-4.61 1.69-8.47 1.58-3.97-.11-10.55.71-10.61.72Zm4.1 11.56c-2.43.24-9.64-.25-9.74-.25l5.47-.12s3.89-.37 8-1.28c4.25-.95 10.7-.42 10.97-.42-.07 0-6.59.53-10.72 1.45-1.41.31-2.77.51-3.97.62Zm14.07 21.49c-.69-.09-2.96.94-5.01.93-1.92-.01-3.68-.55-4.6-.62.88.07 2.79-.45 4.61-.44 2.18.01 4.24.02 5 .12Z"/>
      <path class="cls-2" d="M335.77 209.32s-.73 8.33 4.9 11.57c0 0 9.57 1.73 16.24.18m-14.59-55.12s2.7 5.43.07 11.86"/>
      <path class="cls-11" d="M342.78 238.04s-4.71 6.85-9.82 9.89"/>
      <path class="cls-7" d="M284.98 115.48c7.32.35 20.57-4.41 27.31-9.19 0 0 4.95 4.84 6.86 16.07 1.67 9.81 5.99 15.64 14.23 10.68l-.02 2.56s-2.36 5.08-7.02 4.09c-4.65-.99-14.35-1.36-17.7 1.17"/>
      <path class="cls-2" d="M131.55 183.4s2.09 2.47 5.03 1.77"/>
      <path class="cls-11" d="M332.79 183.88s-.27 6.25 2.44 8.46c0 0 .14 1.76-1.02 2.14"/>
      <path d="M349.83 172.14s6.27 4.1 13.58 5.43" stroke-width="1.9" fill="none" stroke="#010101"/>
      <path class="cls-19" d="m349.29 179.58-2.6-1.85c1.39-1.81 1.82-4.24 1.28-7.22-1.04-5.69-5.62-12.41-10.66-15.62-5.29-3.38-7.28-6.87-8.03-8.99-4.52 1.38-9.15 1.53-12.4 1.4-5.21-.22-9.72-3.17-11.77-7.69-2.02-4.47-1.11-9.52 2.43-13.52 6.1-6.87 4.24-12.59 4.1-12.79.2.28 6.13 6.04-1.64 14.81-2.76 3.12-3.47 6.86-1.93 10.26 1.55 3.43 4.98 5.66 8.94 5.83 3.36.14 8.31-.06 12.83-1.79l2.15-.83.06 2.23c0 .15.33 4.21 7.03 8.49 5.79 3.69 10.86 11.13 12.05 17.68.69 3.8.05 7.12-1.86 9.61Z"/>
      <path class="cls-5" d="M339.2 220.89s1.74 8.66 5.05 9.96c0 0 13.31.42 18.65-1.14 5.14-1.5 6.37-5.08 5.72-7.01-.65-1.93.7-3.84.7-3.84 2.68-2.22 2.06-8 1.41-9.92-.65-1.93-.65-2.25 1.37-4.15 2.01-1.91 3.04-5.75 1.72-7.04s-3.95-4.84-3.95-4.84-.66-1.29 1.03-4.16c1.68-2.87 1.7-5.11.06-7.69s-11.29-3.61-11.29-3.61c-17.98.51-28.99 3.31-28.99 3.31s-2.4 8.63 2.2 16.04"/>
      <path class="cls-27" d="M120.94 159.43s16.43 1.62 17.27 7.6l5.66-1.99c-9.26-7.44-22.93-5.62-22.93-5.62Zm15.54-5.42c-4.52-.65-5.47 1.67-5.47 1.67 11.22.51 15.92 7.81 15.92 7.81l.29-.36c.03-3.42-4.53-8.22-10.74-9.12Zm228.01 2.65s-11.94-3.51-19.28 1.15l2.62 3.22s7.34-5.09 16.66-4.38Zm-13.99 9.29 1.64 1.58c2.26-4.68 16.14-6.35 16.14-6.35-7.31-1.98-17.78 4.78-17.78 4.78Z"/>
      <path class="cls-25" d="M331.02 241.7c-.08.03-.15.07-.21.13-15.05 14.39-39.23 27.69-39.47 27.82-.31.17-.42.55-.24.85.12.2.34.32.56.32.11 0 .22-.03.32-.08.23-.12 21.18-11.65 36.32-24.91-5.08 7.43-12.39 16.5-20.54 21.53 0 0-1.14 1.51.87 1.03s23.56-18.33 30.58-35.94c0 0-3.03.78-3.64 1.48 0 0-1.68 3.23-4.55 7.78Zm-30.05 55.6c-5.05 6.69-13.11 31.83-13.11 31.83l.95-1.95 2.12.12 6.55-4.51c-1.72-6.85 2.27-6.39 3.2-11.51.66-3.66-4.19 2.24-7.02 5.91l4.5-9.27c10.52-19.02 2.81-10.62 2.81-10.62Zm-59.95 11.29c-5.99-20.58-39.32-33.43-39.32-33.43s-.03 1.35 1.72 2.07c1.75.72 25.57 9.41 32.59 31.12 0 0 2.31 7.27 2.71 10.8 0 0 3.74-4.58 2.45-10.27l-.15-.29ZM99.03 176.5c.48.11 9.42 2.96 13.98 9.95.91.35 1.61.66 2.06.87-3.72-7.93-15.92-10.79-16.04-10.82Z"/>
      <path class="cls-25" d="m115.15 187.36-.69-.31c-.35-.75-1.01.07-1.45-.6-5.66-2.2-19.46-6.06-31.74 2.4 14.66-10.05 33.25.36 33.43.45l.94-1.7c-.06-.03-.23-.12-.49-.24Zm168.44 89.56c-.62.29-15.25 7.29-20.99 15.37-.2.28-.13.67.17.86.11.07.24.11.36.11.21 0 .41-.1.53-.27 5.54-7.81 20.34-14.89 20.49-14.96.32-.15.45-.52.29-.83-.16-.31-.55-.43-.87-.28Z"/>
      <path d="M213.29 163.79c1.67 9.04 3.35 18.58 5.03 28.49 1.59-9.99 3.2-20.34 4.81-30.95 9.5-1.94 19.23-2.69 28.91-2.25-3.17 5.48-6.34 11.16-9.51 16.85v38.68c3.17 5.71 6.34 11.4 9.51 16.9-10.48.48-21.02-.44-31.27-2.76 2.93-4.55 5.88-9.53 8.84-14.76v-45.51c-3.2 20.99-6.38 41.27-9.53 60.11-2.28-.53-4.55-1.13-6.79-1.79-3.12-18.77-6.2-36.11-9.24-51.32v34.91c2.79 5 5.61 10.44 8.47 16.19-8.25-2.51-16.24-5.96-23.79-10.34 2.79-1.64 5.63-4.17 8.53-7.4v-27.1c-2.9-3.22-5.75-5.73-8.53-7.37 7.78-4.52 16.03-8.04 24.55-10.57Zm60.21-1.74c5.25 13.2 10.42 25.43 15.47 35.52V180.1c-2.98-5.04-6-10.55-9.06-16.35 8.52 2.52 16.78 6.03 24.57 10.53-2.79 1.65-5.64 4.18-8.54 7.41v30.74c2.95 1.85 5.84 3.16 8.68 3.8-6.76 3.92-13.88 7.1-21.21 9.52-5.19-9.83-10.49-21.98-15.86-35.18v23.09c3.13 5.07 6.24 9.81 9.32 14.04-8.58 2.28-17.4 3.57-26.25 3.86 3.17-5.76 6.34-11.59 9.49-17.32V176.3c-3.15-5.72-6.32-11.53-9.49-17.27 7.7.26 15.38 1.26 22.89 3.02Z" stroke="#fff" stroke-width="7.94" fill="#d1d3d4" stroke-linecap="round" stroke-linejoin="round"/>
      <path d="M283.4 225.75c7.34-2.42 14.45-5.6 21.21-9.52-2.83-.64-5.73-1.95-8.68-3.8v-30.74c2.9-3.23 5.75-5.76 8.54-7.41-7.79-4.51-16.04-8.02-24.57-10.53 3.06 5.8 6.08 11.31 9.06 16.35v17.47c-5.05-10.09-10.22-22.32-15.47-35.52-7.05-1.65-14.25-2.63-21.47-2.96 0 0 0 0 0 0-.19 0-.38 0-.57-.02-.29-.01-.57-.03-.86-.04v.01c-9.21-.31-18.45.45-27.48 2.29-1.61 10.61-3.21 20.96-4.81 30.95-1.69-9.92-3.37-19.45-5.03-28.49-8.52 2.53-16.77 6.05-24.55 10.57 2.79 1.63 5.63 4.15 8.53 7.37v27.1c-2.9 3.23-5.75 5.76-8.53 7.4 7.55 4.38 15.54 7.83 23.79 10.34-2.86-5.74-5.68-11.19-8.47-16.19v-34.91c3.04 15.21 6.12 32.55 9.24 51.32 2.25.67 4.51 1.27 6.79 1.79 3.15-18.85 6.33-39.12 9.53-60.11v45.51c-2.96 5.24-5.91 10.21-8.84 14.76 9.79 2.21 19.84 3.13 29.85 2.8v.02c.27 0 .54-.03.82-.04.2 0 .41 0 .61-.02v-.01c8.37-.38 16.71-1.64 24.83-3.8-3.08-4.23-6.19-8.97-9.32-14.04v-23.09c5.36 13.2 10.67 25.35 15.86 35.18Zm-23.3-11.51c-2.91 5.3-5.84 10.69-8.77 16.02-2.93-5.11-5.87-10.37-8.8-15.65v-38.68c2.93-5.26 5.87-10.51 8.8-15.6 2.93 5.32 5.86 10.68 8.77 15.97v37.94Z" stroke="#002856" stroke-width="4.76" fill="#d1d3d4" stroke-linecap="round" stroke-linejoin="round"/>
      <path d="M213.29 163.79c1.67 9.04 3.35 18.58 5.03 28.49 1.59-9.99 3.2-20.34 4.81-30.95 9.5-1.94 19.23-2.69 28.91-2.25-3.17 5.48-6.34 11.16-9.51 16.85v38.68c3.17 5.71 6.34 11.4 9.51 16.9-10.48.48-21.02-.44-31.27-2.76 2.93-4.55 5.88-9.53 8.84-14.76v-45.51c-3.2 20.99-6.38 41.27-9.53 60.11-2.28-.53-4.55-1.13-6.79-1.79-3.12-18.77-6.2-36.11-9.24-51.32v34.91c2.79 5 5.61 10.44 8.47 16.19-8.25-2.51-16.24-5.96-23.79-10.34 2.79-1.64 5.63-4.17 8.53-7.4v-27.1c-2.9-3.22-5.75-5.73-8.53-7.37 7.78-4.52 16.03-8.04 24.55-10.57Zm60.21-1.74c5.25 13.2 10.42 25.43 15.47 35.52V180.1c-2.98-5.04-6-10.55-9.06-16.35 8.52 2.52 16.78 6.03 24.57 10.53-2.79 1.65-5.64 4.18-8.54 7.41v30.74c2.95 1.85 5.84 3.16 8.68 3.8-6.76 3.92-13.88 7.1-21.21 9.52-5.19-9.83-10.49-21.98-15.86-35.18v23.09c3.13 5.07 6.24 9.81 9.32 14.04-8.58 2.28-17.4 3.57-26.25 3.86 3.17-5.76 6.34-11.59 9.49-17.32V176.3c-3.15-5.72-6.32-11.53-9.49-17.27 7.7.26 15.38 1.26 22.89 3.02Z" fill="url(#linear-gradient)"/>
      <path d="m288.92 25.35 4.1-4.09s-4.95-.93-6.22 2.09l-.64 3.12c1.33-5.26 5.01-10.43 5.01-10.43s-3.95 2.25-6.21 7.53c-.62-3.56-2.91-9.24-10.95-13.34l-.37 1.89S269.15 2.05 244.35 0l5.07 3.78s-11.09-6.01-29.77 5.9l3.17.13s-10.13 4.06-14.29 11.88l3.56-1.33-5.1 3.39 1.25.05s-1.03.63-2.22 2.3c-2.83 2.23-9.88 8.53-12.87 18.01l5.64-3.1s-8.36 13.76-4.11 10.33l4.25-3.43s-4.28 4.53-2.71 9.28c1.57 4.75 3.55-1.24 3.55-1.24s-1.21 4.55 4.13 10.88l3.33 2.39 1.82-1.27-.03.64s.74-.56 1.44-1.62l.29-.2-.07-.16c.9-1.54 1.58-3.95.3-7.19-1.19-3.02-1.79-4.52-2.08-5.26l-.28-.72.31-2.3s1.59.91 4.42 1.72c19.25 3.2 29.06-15.41 29.06-15.41-1.82 11.62-14.54 15.39-21.87 16.61 7.12.39 16.98-1.29 28.07-9.52l6.72-5.83s.99 4.03-4.39 6.76c0 0 6.56 5.13 21.68-3.74l4.82-3.12c-1.26 1.42-2.42 5.13 1.62 14.72l3.27-5.34s.9 1.93.97 2.77c.07.84-.91.2 2.54 11.78l1.12 4.52s2.29 3.91 2.43 3.91c.14 0 2.53-2.58 2.53-2.58s9.79-22.05-2.99-43.06Z"/>
      <path class="cls-25" d="m294.74 63.09-2.05-.13c-1.36-.08-2.72-.16-4.08-.27-.81-.06-1.62-.15-2.48-.23-.91-.09-1.83-.19-2.75-.25-1.04-.08-2.09-.12-3.13-.17-.67-.03-1.34-.06-2.01-.1-.11 0-.21-.03-.37-.05-.31-.05-.69-.12-1.14-.12-.55 0-1.04.02-1.55.05h-.16c-.3.03-.59.04-.89.05-.52.02-1.05.03-1.57.04-1.07.02-2.17.05-3.29.13-1.79.13-3.68.34-5.62.61-1.65.23-3.3.51-4.95.78l-1.34.22c-.48-.25-1.05-.35-1.61-.27l-.48.06c-.57.07-1.21.16-1.88.35-.35.1-.61.16-.75.16-.6-.03-1.17 0-1.65.02h-.17c-.47-.35-1.06-.56-1.64-.6-.71-.04-1.43-.05-2.14-.06h-.36c-.18-.01-.34 0-.49.02-.07-.02-.15-.04-.26-.07l-.32-.08c-.07-.02-.14-.03-.23-.05-1.21-.68-2.4-.44-2.83-.35l-.28.06c-.07.02-.16.04-.25.05-.96-.24-1.91-.51-2.91-.79l-.14-.04c-.54-.15-1.09-.31-1.63-.45l-1.22-.33c-1.31-.36-2.66-.73-4.03-1.03-1.77-.39-3.63-.72-5.7-1.03-1.86-.28-4.06-.58-6.32-.76-1.57-.13-3.16-.2-4.77-.28-1-.05-2-.09-2.99-.15-.88-.05-1.75-.13-2.63-.21-.55-.05-1.09-.1-1.63-.14-.54-.04-1.08-.08-1.62-.11l-1.53-.09c-.49-.03-.97-.06-1.46-.1-1.46-.11-2.65.81-2.84 2.19-.03.22-.06.44-.11.76-.09.63-.19 1.28-.24 1.97-.04.64-.05 1.28-.05 1.95 0 .51 0 1.02-.04 1.53-.09 1.64.53 2.97 1.79 3.85.05.03.09.07.16.13.14.11.27.23.41.33.18.13.36.32.43.83l.14.92c.11.77.22 1.53.34 2.3.49 3.17.98 6.02 2.05 8.84 1.59 4.19 4.5 7.19 8.66 8.91 2.72 1.12 5.67 1.82 9.02 2.14 2.18.21 4.73.38 7.39-.14 3.07-.6 5.42-1.56 7.39-3.03 1.08-.8 2.17-1.81 3.34-3.07.8-.86 1.58-1.9 2.38-3.16 1.11-1.74 1.98-3.59 2.81-5.41.33-.07.67-.14 1.03-.21.44.11.88.24 1.36.38l.63.18c.13.23.24.51.29.64.19.52.38 1.05.58 1.61.4 1.12.81 2.27 1.3 3.42.37.87.83 1.64 1.29 2.39l.06.09c.14.23.28.46.41.7 1.17 2.03 2.77 3.73 4.75 5.04 3 1.99 6.51 3.18 10.44 3.53 1.02.09 2.21.19 3.44.19.79 0 1.51-.04 2.21-.12.24-.03.49-.05.73-.07.88-.08 1.89-.16 2.94-.55.65-.24 1.31-.47 1.97-.68 3.08-1 5.48-2.5 7.33-4.58 1.41-1.59 2.54-3.59 3.43-6.1.67-1.89 1.28-3.82 1.88-5.74.26-.84.52-1.67.79-2.51.1-.32.31-.98.52-1.11.2-.13.42-.25.68-.39l.43-.24c1.07-.61 1.73-1.5 1.9-2.56l.05-.33c.16-1.01.32-2.03.44-3.04.08-.67.12-1.35.16-2.02l.05-.83c.12-1.81-1.02-3.11-2.84-3.22Z"/>
      <path d="M251.06 81.05c.14.85.28 1.72.47 2.57.17.75.44 1.46.71 2.14.2.51.4 1.03.55 1.57.03.11.13.18.24.18h.06c.13-.04.21-.17.18-.3-.02-.08-1.93-8.1-1.88-13.23 0-.14-.11-.25-.25-.25s-.25.11-.25.24c-.01.51-.03 1.02-.06 1.53-.06 1.45-.13 2.95.04 4.45.06.37.12.75.18 1.12Zm3.75 7.53-.3-.36c-.08-.1-.23-.12-.33-.05-.11.07-.14.21-.08.33.29.52.56 1.21.79 1.82l.09.23c.13.32.07.71-.15 1.04-.21.31-.51.5-.81.51-.02 0-.08-.03-.12-.05l-.08-.04c-.07-.03-.14-.08-.2-.12-.16-.1-.34-.2-.54-.24-.92-.16-1.76.18-2.49 1-.77.86-1.47 1.24-2.31 1.2-.98-.04-1.78-.61-2.43-1.16-.3-.25-.7-.57-1.15-.73-.36-.13-1.45-.54-2.25.49-.01.01-.06.04-.09.04-.23.03-.48-.09-.67-.31-.23-.25-.33-.59-.27-.89.08-.41.21-.84.4-1.35.06-.17.1-.36.14-.56.04-.19.08-.37.14-.52.05-.13-.01-.27-.14-.32-.12-.05-.27 0-.32.13-.12.28-.27.54-.43.82-.23.4-.47.81-.6 1.29-.14.5-.04 1.08.06 1.48.14.56.56.93 1.25 1.11.41.1 1.02.26 1.39-.41.69-.19 1.28-.09 1.81.31.14.1.27.21.41.33.29.24.6.49.93.68.63.37 1.27.55 1.89.55.21 0 .41-.02.62-.06.81-.16 1.53-.61 2.21-1.35.25-.27.52-.48.76-.58.59-.24 1.08-.31 1.52.13.15.15.4.17.59.15.19-.03.36-.1.55-.19.71-.31 1.43-1.01 1.36-2.01-.06-1.04-.59-1.67-1.15-2.33Z"/>
      <path class="cls-20" d="m294.67 64.14-2.06-.13c-1.36-.08-2.72-.16-4.08-.27-.82-.06-1.64-.15-2.46-.23-.92-.09-1.84-.19-2.76-.25-1.03-.07-2.06-.12-3.09-.16-.68-.03-1.35-.06-2.03-.1-.17 0-.33-.04-.5-.07-.72-.13-1.69-.09-2.59-.04-.31.02-.61.03-.92.04-.53.02-1.06.03-1.59.04-1.05.02-2.15.05-3.23.13-1.76.13-3.63.34-5.54.6-1.65.23-3.3.51-4.95.78l-1.75.29c-.34-.3-.82-.4-1.2-.34l-.48.06c-.56.07-1.13.15-1.72.31-.43.12-.79.21-1.13.2-.54-.03-1.06 0-1.57.02l-.61.02c-.33-.35-.82-.59-1.3-.62-.69-.04-1.38-.05-2.07-.06h-.4c-.13 0-.27 0-.4.02-.04 0-.08.01-.09.01-.17-.03-.34-.07-.52-.12l-.31-.08c-.09-.02-.18-.04-.35-.06-.81-.52-1.63-.44-2.19-.33l-.27.06c-.18.04-.49.11-.58.09-1.05-.26-2.1-.55-3.14-.84-.58-.16-1.16-.33-1.74-.48l-1.2-.33c-1.3-.36-2.64-.73-3.99-1.02-1.74-.38-3.57-.71-5.62-1.02-1.84-.27-4.03-.58-6.24-.75-1.58-.13-3.18-.2-4.73-.27-1-.05-2.01-.09-3.01-.15-.89-.05-1.77-.13-2.66-.21-.54-.05-1.09-.1-1.63-.14-.52-.04-1.04-.07-1.56-.1l-1.35-.08c-.56-.03-1.12-.07-1.69-.11-.89-.05-1.55.45-1.67 1.27-.03.25-.07.5-.11.75-.09.62-.19 1.25-.23 1.9-.04.62-.05 1.24-.05 1.87 0 .54-.01 1.07-.04 1.61-.07 1.28.38 2.28 1.34 2.95.09.06.16.13.24.2.11.1.23.19.35.28.48.35.75.84.86 1.53l.14.93c.11.76.22 1.52.34 2.28.48 3.11.96 5.9 2 8.64 1.48 3.91 4.2 6.7 8.06 8.3 2.61 1.08 5.45 1.75 8.69 2.06 2.1.2 4.56.37 7.07-.12 2.9-.57 5.1-1.46 6.94-2.83 1.02-.76 2.07-1.72 3.19-2.94.75-.82 1.5-1.8 2.27-3.01 1-1.57 1.81-3.26 2.57-4.91l.06.03v-.16c.09-.2.18-.39.27-.59l.06-.13c.53-.12 1.08-.24 1.66-.35.07-.01.15-.03.13-.05.57.14 1.13.3 1.7.46l.66.19c.08.02.17.04.31.07.31.33.51.8.67 1.22.2.54.39 1.08.59 1.62.39 1.11.8 2.25 1.27 3.36.35.81.79 1.55 1.22 2.26.16.27.33.54.48.81 1.09 1.89 2.57 3.46 4.41 4.68 2.85 1.89 6.18 3.01 9.92 3.35 1.08.1 2.2.19 3.33.19.69 0 1.38-.03 2.08-.11.26-.03.51-.05.77-.07.85-.07 1.73-.15 2.64-.48.67-.25 1.34-.48 2.01-.7 2.89-.94 5.13-2.33 6.85-4.26 1.32-1.49 2.38-3.37 3.23-5.75.67-1.89 1.28-3.83 1.87-5.7.26-.84.52-1.67.79-2.51.23-.72.46-1.35.94-1.67.24-.16.5-.3.76-.44l.42-.23c.79-.45 1.25-1.06 1.37-1.82l.05-.33c.16-1 .32-2 .43-3 .07-.65.11-1.31.15-1.96l.05-.83c.08-1.24-.6-2.02-1.82-2.1Zm-49.23 11.41c-.17.05-.33.1-.5.13-.15.03-.29.06-.42.11l-.45-.15.05-.5h-.01l.27-.23-.81-.79.29-.66-.38-.25.21-.37-.26-.29.43-.34-.68-.69.32-.47-.49-.49c.03-.17.03-.32.01-.45-.01-.09-.04-.19-.08-.29l.44-.6-.47-.43.33-.51-.33-.33.23-.25-.36-.65s-.03-.05-.05-.08c.06-.14.11-.27.14-.41.11-.02.21-.04.31-.05.09-.02.18-.03.28-.05l.09.06c.24.16.89.59 1.7.39.45.15.87.14 1.18.12.11 0 .22-.02.33 0 .53.08 1.13.14 1.78.08.79.72 1.78.65 2.29.61.42-.03.84-.03 1.26-.03.31 0 .63 0 .94-.01.42-.02.83-.07 1.2-.15.22-.05.44-.11.67-.16-.02.28-.04.57-.09.85-.04.22-.1.44-.16.66-.06.21-.12.41-.16.62-.04.18-.03.34-.02.48-.18.41-.24.82-.29 1.16-.03.22-.07.43-.12.59-.29.79-.55 1.64-.77 2.59-.05.07-.09.15-.13.22-.05.11-.1.23-.15.34l-.32.7c-.05.11-.1.23-.14.33 0 .03-.02.05-.03.08-.21.2-.35.41-.44.63-.31-.29-.73-.54-1.31-.64-.66-.11-1.33-.34-2.01-.59-.39-.14-.76-.19-1.1-.19s-.69.05-.98.09l-.28.04c-.35.04-.66.13-.94.22Zm-5.46-3.8c.04.16.06.32.05.45-.02.31-.04.61-.06.92-.06.89-.11 1.73-.26 2.54-.36 1.97-1.1 3.92-2.18 5.81-.86 1.5-1.71 2.6-2.68 3.46-1.65 1.47-3.37 2.37-5.25 2.75-2.14.43-4.11.52-6.03.28-3.11-.39-5.53-1.09-7.61-2.19-2.08-1.11-3.53-2.88-4.41-5.42-.67-1.91-1.11-4.06-1.39-6.76-.14-1.35-.3-2.88-.1-4.33.12-.86.28-1.84.76-2.6.39-.63 1.03-1 2.19-1.3 1.32-.33 2.68-.5 4.03-.5h.27c.93.02 1.86.02 2.81.03h1.31c.43.06.87.11 1.31.15.99.1 2.01.2 3 .36 2.88.47 6.24 1.12 9.34 2.44 1.27.54 2.51 1.25 3.55 1.88.64.39 1.1 1.06 1.35 2.01Zm18.92-.87c1.45-.78 3.1-1.34 5.05-1.7 1.89-.35 3.96-.66 6.32-.94.8-.09 1.68-.14 2.72-.14h.84c1.98.04 3.76.09 5.56.27 2.33.24 4.05.67 5.58 1.41 1.25.6 1.79 1.53 1.82 3.1.02 1.31-.2 2.59-.44 3.95l-.04.22c-.46 2.6-1.25 5.11-2.37 7.45-1.36 2.86-3.49 4.67-6.51 5.53-1.9.54-3.88.81-6.04.81-.35 0-.7 0-1.05.01h-.42c-2.67-.21-5-.88-7.14-2.04-.98-.53-1.91-1.38-2.93-2.68-.97-1.24-1.57-2.81-2.1-4.19-.61-1.6-.87-3.3-1.02-4.59-.14-1.2-.23-2.61.19-3.97.36-1.16 1.01-1.97 1.98-2.5Z"/>
      <path class="cls-25" d="M221.5 63.86c1.44.16 2.94.27 4.42.51 3.27.53 6.52 1.21 9.6 2.52 1.27.54 2.49 1.23 3.69 1.95.96.58 1.53 1.53 1.83 2.65.07.25.1.53.08.79-.09 1.19-.12 2.4-.34 3.57-.4 2.18-1.2 4.22-2.3 6.13-.8 1.39-1.72 2.68-2.9 3.73-1.68 1.5-3.58 2.57-5.77 3.01-2.13.43-4.26.56-6.39.3-2.77-.35-5.48-.98-7.99-2.31-2.43-1.29-4-3.35-4.92-6.01-.79-2.26-1.19-4.6-1.44-6.99-.16-1.52-.31-3.04-.1-4.57.14-1.05.34-2.11.91-3.01.67-1.06 1.74-1.49 2.85-1.77 1.51-.38 3.05-.56 4.6-.54 1.37.02 2.74.03 4.17.05Zm48.39 28.07c-2.69-.22-5.26-.89-7.64-2.18-1.3-.7-2.34-1.78-3.27-2.97-1.04-1.33-1.65-2.89-2.25-4.46-.6-1.56-.89-3.19-1.08-4.84-.18-1.47-.22-2.94.23-4.4.44-1.41 1.25-2.45 2.49-3.12 1.7-.91 3.52-1.47 5.37-1.82 2.12-.4 4.26-.7 6.4-.95 1.23-.14 2.48-.16 3.71-.14 1.88.04 3.78.09 5.65.28 2.05.21 4.07.6 5.96 1.51 1.65.79 2.39 2.12 2.43 4.02.03 1.49-.24 2.92-.49 4.37-.47 2.69-1.29 5.27-2.46 7.72-1.51 3.18-3.93 5.17-7.19 6.11-2.09.6-4.21.85-6.36.85-.5 0-1 .01-1.5.02Zm-17.55-13.12c-.21-.32-.44-.69-.68-1.04-.27-.38-.56-.67-1.07-.75-.75-.12-1.49-.38-2.21-.64-.62-.23-1.23-.07-1.84 0-.47.06-.92.25-1.38.33-.52.1-.87.33-.86.88-.28-.12-.56-.23-.86-.36v-.69c-.18-.06-.35-.11-.58-.18.04-.19.08-.4.13-.66-.31-.18-.78-.39-.2-.87q-.49-.49-.27-1c-.13-.09-.27-.18-.45-.3.1-.17.19-.35.31-.56-.2-.22-.68-.43-.12-.87l-.47-.47c.1-.15.2-.29.33-.47-.14-.15-.28-.28-.43-.44.37-.32.38-.61-.12-.85.14-.19.26-.35.39-.53-.13-.12-.27-.24-.42-.39.11-.17.22-.34.34-.54-.15-.14-.29-.28-.45-.44.14-.15.26-.28.41-.44-.07-.12-.16-.23-.19-.36-.04-.14-.07-.34 0-.43.36-.51.22-.99-.39-1.16-.02 0-.03-.04-.11-.12.86.28 1.65 0 2.44-.09.2-.02.43.15.62.27.31.21.62.35.99.16.06-.03.16-.07.2-.04.49.34 1.04.13 1.56.2.64.09 1.26.15 1.9 0 .08-.02.22.03.26.1.43.61 1.02.62 1.67.57.75-.06 1.5-.02 2.25-.05.33-.01.67-.05 1-.12.52-.11 1.03-.28 1.55-.4.45-.1.59.06.52.53-.08.58-.08 1.17-.18 1.75-.07.45-.24.89-.34 1.34-.04.16.07.38 0 .5-.33.58-.26 1.27-.48 1.86-.32.85-.56 1.72-.77 2.61-.02.11-.12.19-.17.29-.08.17-.14.34-.22.51-.08.17-.16.33-.23.5-.04.09-.09.19-.12.29-.04.12-.05.3-.12.35-.57.36-.47 1.02-.65 1.54-.04.1-.09.2-.16.29-.09.12-.19.23-.3.36Z"/>
      <path class="cls-25" d="M266.07 92.13c5.06 1.08 10.02.64 14.97-1.32-2.35 2.05-11.77 2.85-14.97 1.32Zm28.75-26.12c-.07.95-.13 1.9-.2 2.85h-.06c.06-.95.13-1.89.2-2.84h.06Z"/>
      <path d="M276.21 152.03c-.03-1.05-.12-2.43-.67-3.83-.67-1.72-1.91-2.83-3.48-3.1l-.17-.03c-.4-.07-.8-.14-1.21-.18-2.09-.18-4.08.11-5.57.39-3.52.66-7.15 1.74-11.38 3.41-1.61-1.27-3.52-2.09-5.81-2.51-1.23-.22-2.36-.25-3.43-.09-2.45-3.11-4.82-5.72-7.21-7.99-1.51-1.43-3.34-3.04-5.56-4.23-.31-.17-.64-.32-.96-.46l-.29-.13c-1.79-.82-3.62-.44-5.14 1.08-.78.77-1.44 1.72-2.09 2.97-1.39 2.69-2.19 5.49-2.74 7.67-.7 2.94-1.13 5.47-1.37 7.97-.15 1.61-.29 3.73-.05 5.92.09.83.26 1.91.77 2.99.53 1.11 1.33 1.85 2.32 2.13.08.02.17.04.26.06.31.06.72.14 1.15.16 1.75.1 3.41-.15 4.96-.44 4.55-.85 8.89-2.18 12.58-3.39.97.66 2.08 1.2 3.47 1.68 2.08.73 3.89 1.04 5.67.99l.6.67c.54.61 1.08 1.22 1.63 1.82 2.37 2.58 4.96 5.3 7.85 7.73 1.37 1.15 2.51 1.94 3.69 2.54.59.3 1.17.47 1.75.49 1.04.04 2.03-.38 2.89-1.24.27-.27.54-.54.78-.84 1.29-1.6 2.15-3.41 2.83-4.96 1.51-3.47 2.65-7.22 3.39-11.12.44-2.32.62-4.26.58-6.11Z" style="mix-blend-mode:multiply" opacity=".68" fill="#231f20"/>
      <path d="M275.47 152.77c.34-1.97.44-3.6.33-5.14-.06-.83-.19-1.91-.71-2.96-.74-1.5-1.95-1.95-2.83-2.05l-.17-.02c-.38-.05-.75-.09-1.13-.11-2-.09-3.89.22-5.31.5-3.55.7-7.21 1.81-11.49 3.48-.09.03-.12.04-.11 0-1.61-1.13-3.53-1.82-5.86-2.11-1.34-.17-2.54-.12-3.64.13-2.67-2.78-5.22-5.09-7.78-7.06-1.51-1.16-3.34-2.47-5.5-3.4-.3-.13-.61-.24-.92-.35l-.31-.11c-1.03-.37-2.56-.52-4.07.91-.67.63-1.23 1.4-1.78 2.41-1.24 2.3-1.91 4.71-2.35 6.55h0c-.58 2.56-.91 4.74-1.04 6.89-.09 1.36-.15 3.15.16 4.96.11.64.29 1.47.76 2.25.43.72 1.02 1.17 1.74 1.33.06.01.12.02.19.03.34.05.69.09 1.04.09 1.65.03 3.24-.24 4.72-.53 4.6-.91 9.02-2.27 12.75-3.49 1 .61 2.18 1.08 3.67 1.49 2.15.58 4 .78 5.8.61.32.29.63.58.94.86.56.51 1.11 1.02 1.68 1.53 2.44 2.16 5.1 4.43 8.03 6.44 1.35.92 2.46 1.54 3.6 2.01 1.31.54 2.54.33 3.54-.62.23-.22.46-.44.67-.68 1.15-1.35 1.9-2.88 2.49-4.2 1.35-3.02 2.32-6.26 2.89-9.62Z" stroke="#231f20" stroke-width="2" fill="#231f20" stroke-linecap="round" stroke-linejoin="round"/>
      <path class="cls-32" d="M242.93 148.16c-1.77-1.46-3.89-2.21-6.01-2.97-.48-.17-.97-.32-1.46-.46.99.38 1.98.75 2.96 1.16 1.24.51 2.45 1.09 3.54 1.86.03.02.06.04.08.06q.8.6.59 1.53c-.06.28-.12.57-.16.86-.02.18-.11.28-.27.37-1.64.83-3.36 1.42-5.15 1.83-.57.13-1.14.23-1.71.37 2.44-.29 4.77-.92 7.02-1.94-.04.6-.08 1.17-.11 1.75-.01.23 0 .46-.01.69 0 .14-.03.26-.21.31-4.49 1.46-9 2.83-13.67 3.69-1.26.23-2.54.41-3.83.36-.17 0-.34-.03-.5-.04-.47-.04-.85-.25-1.05-.65-.21-.42-.41-.86-.52-1.31-.36-1.4-.38-2.82-.33-4.25.12-3.22.65-6.37 1.55-9.47.5-1.72 1.11-3.41 2.07-4.95.28-.46.61-.9.98-1.3.95-1.03 1.77-1.21 3.12-.74 1.61.56 3.04 1.42 4.42 2.38 2.96 2.05 5.6 4.46 8.14 6.97.48.48.95.97 1.42 1.46.09.09.16.16.08.31-.19.34-.38.68-.54 1.03-.16.35-.29.72-.43 1.09Zm10.49 5.46c2.38 1.79 4.96 3.28 7.71 4.51-.79-.43-1.59-.84-2.37-1.28-1.78-1-3.47-2.12-5.06-3.39-.16-.13-.19-.24-.13-.43.19-.65.35-1.31.5-1.96.05-.2.12-.32.33-.41 2.22-.9 4.51-1.54 6.91-1.78.05 0 .1-.02.15-.05-2.51.13-4.91.72-7.22 1.58-.01-.83-.02-1.65-.04-2.47-.03-.01-.06-.03-.09-.04.04-.01.09-.02.13-.03 3.81-1.48 7.69-2.78 11.73-3.57 1.7-.33 3.41-.56 5.15-.46.34.02.69.08 1.03.12.73.1 1.23.49 1.58 1.09.43.75.58 1.57.66 2.41.15 1.61.01 3.21-.25 4.8-.55 3.35-1.49 6.59-2.89 9.7-.6 1.34-1.28 2.65-2.25 3.79-.25.29-.55.55-.86.8-.43.34-.92.39-1.45.2-1.3-.46-2.44-1.17-3.56-1.93-2.77-1.89-5.31-4.04-7.81-6.25-.97-.85-1.91-1.74-2.86-2.6-.12-.11-.14-.19-.06-.34.35-.65.68-1.31 1.03-1.99Z"/>
      <path class="cls-32" d="M253.65 151.67c-.33 1.36-.8 2.6-1.49 3.76-.09.16-.21.23-.39.25-1.51.18-2.99.04-4.47-.27-1.55-.33-3.04-.8-4.42-1.59-.24-.14-.34-.29-.34-.56 0-1.79.19-3.55.79-5.25.23-.65.57-1.26.88-1.89.06-.11.21-.21.34-.24 1.08-.31 2.18-.33 3.29-.21 1.89.21 3.64.78 5.25 1.76.6.36.85.81.85 1.48 0 .95-.12 1.89-.3 2.76Z"/>
      <path class="cls-25" d="M499.61 326.28c-1-2.81-3.04-5.06-5.74-6.34-24.29-11.5-49.63-21.37-75.31-29.31-4.48-1.38-13.87.09-17.24 3.71-.99-4.79-7.08-10.67-11.56-11.8-16.38-4.13-33.13-7.57-49.78-10.22-.16-.03-.31-.04-.46-.06-3-1.69-6.59-1.92-9.79-.57-.96.4-1.91.81-2.86 1.21-6.63-3.55-14.17-5.74-22.45-6.52-12.39-1.18-23.86 1.05-34.07 6.65-2.51 1.38-4.78 2.88-6.79 4.49v-2.93c.02-3.57-1.69-6.95-4.57-9.06-2.87-2.1-6.62-2.7-10.02-1.61-2.56.83-5.15 1.68-7.71 2.55-6.91-2.1-14.52-2.93-22.63-2.47-8.23.46-15.22 2.32-20.82 5.54-1.92-.99-4.1-1.41-6.27-1.19-13.17 1.38-26.46 3.24-39.5 5.54-.38.07-.77.16-1.15.27-.39.03-.78.08-1.16.15-15.12 2.73-30.38 6.14-45.35 10.12l-1.78.47c-.4.1-.79.21-1.16.31-.15.04-.3.09-.45.15-13.86 3.79-27.55 8.07-40.68 12.75-2.9 1.03-5.17 3.16-6.4 5.83-2.68-1.22-5.79-1.34-8.65-.24-13.11 5.09-26.19 10.73-38.87 16.77-4.42 2.1-6.98 6.95-6.24 11.79s4.66 8.69 9.51 9.35c3.71.51 7.49 1.08 11.28 1.7l4.35 9.8c-1.95 3.33-3.87 6.71-5.74 10.08-2.36 4.26-1.71 9.51 1.63 13.07 2.1 2.24 5.07 3.52 8.14 3.52 1.67 0 3.29-.37 4.8-1.08 10.91-5.19 22.15-10.06 33.41-14.45.18-.07.35-.14.53-.22.17-.06.35-.12.53-.19 3.04-1.18 6.15-2.35 9.21-3.47.16-.06.32-.12.47-.18.16-.05.31-.1.47-.16 13.75-4.99 27.88-9.44 42.01-13.21 4.15-1.11 7.24-4.45 8.07-8.57 1.34.57 2.77 1.07 4.27 1.5 4.14 1.18 8.51 1.75 13.35 1.75 4.21 0 8.83-.46 13.72-1.36 11.04-2.02 18.7-5.08 24.09-9.62 2.23-1.88 4.06-3.99 5.46-6.3.49 3.57 2.65 6.67 5.85 8.36 3.25 1.72 7.35 1.69 10.59-.08 1.73-.95 3.47-1.89 5.21-2.82 8.19 1.9 15.93 2.71 23.61 2.47 9.48-.29 17.05-2.24 23.12-5.93 2.35-1.43 4.38-3.08 6.08-4.93 1.24.98 2.56 1.93 3.98 2.84 8.71 5.64 18.81 8.94 30.87 10.11 9.41.91 17.37.31 24.23-1.87 1.69 1.94 4.02 3.25 6.62 3.66 23.12 3.68 46.18 9.02 68.53 15.88.2.06.4.11.59.15.18.07.36.14.54.2 23.1 7.14 45.89 16.04 67.73 26.44 1.52.72 3.13 1.09 4.8 1.09 4.29 0 8.25-2.5 10.09-6.37l8.79-18.46c.74-1.56 1.11-3.25 1.09-4.97l7.18-15.17c1.28-2.7 1.43-5.73.42-8.54Z"/>
      <path class="cls-20" d="M442.16 349.48c-1.76-2.36-4.64-3.76-7.47-3.62-2.73.08-5.45.18-8.11.29-5.53-4.2-12.13-7.36-19.65-9.38-9.08-2.44-17.07-2.35-23.75.27-.97.38-2.05.34-3.2.3-1.28-.05-2.86-.1-4.37.53-2.56-3.08-5.66-4.32-8.4-5.42-1.09-.44-2.11-.85-3.11-1.36-3.9-2-9.12-3.54-15.52-4.59-16.51-2.71-33.32-4.75-49.98-6.04-3.1-.25-6.03 1.13-7.84 3.52-3.05-1.82-6.57-3.13-10.52-3.9-.21-.04-.43-.08-.64-.1-2.94-.36-5.95-.71-8.95-1.03-.25-.03-.49-.04-.72-.05-2.34-.06-4.67-.1-6.96-.13-15.37-.26-30.95.09-46.32 1.04-.53.03-1.06.12-1.58.25-.53-.06-1.08-.08-1.62-.04-23.22 1.57-46.69 4.57-69.78 8.93-.14.02-.29.04-.45.07-.39.07-.77.15-1.14.23l-1.87.36c-.45.08-.9.17-1.35.26-.16.03-.31.07-.46.11-11.47 2.28-22.79 4.86-33.64 7.69-1.7.44-3.22 1.37-4.38 2.64-1.65-.52-3.44-.56-5.11-.09-11.02 3.06-22.09 6.5-32.93 10.21-3.67 1.26-6.11 4.71-6.08 8.59.04 3.88 2.54 7.29 6.23 8.47 3.98 1.28 8.01 2.64 11.98 4.03l4.57 14.47c-2.34 3.55-4.64 7.13-6.86 10.68-2.01 3.22-1.78 7.38.58 10.35 1.72 2.16 4.28 3.4 7.04 3.4.99 0 1.97-.16 2.91-.48 11.11-3.81 22.5-7.28 33.84-10.33 1.56-.42 2.95-1.23 4.05-2.35 1.51.44 3.12.48 4.69.08 5.69-1.43 11.52-2.78 17.31-4.03 1.5-.32 2.87-1.01 4.01-2 1.44.45 2.99.55 4.45.26 22.24-4.4 44.99-7.38 67.6-8.85.3-.02.61-.06.92-.11.33.02.65.01.95 0 14.12-.87 28.47-1.18 42.65-.91h.22c1.43 0 2.84-.35 4.11-1 1.28.75 2.73 1.18 4.24 1.24 7.38.26 15.01.7 22.66 1.3 14.31 1.13 28.7 2.86 42.78 5.14 3.61.58 7.08.88 10.34.88 5.79 0 11-.9 15.85-2.74-.44 2.83.47 5.68 2.51 7.72 2.19 2.2 5.31 3.11 8.34 2.43 1.96-.44 3.95-.88 5.94-1.3 6.81 4.51 13.59 7.72 20.69 9.81 4.92 1.45 9.36 2.15 13.56 2.15 3.13 0 6.14-.41 8.96-1.22 7.81-2.25 13.28-7.33 15.81-14.7 1.42-4.13 2.33-10.42-1.09-17.39l5.38-16.35c.91-2.78.42-5.84-1.33-8.18Zm-98.91 8.71c-.3 1.64-.63 2.67-.88 3.28-.95.06-2.82.04-6.08-.44l1.36-10c.06 0 .12.02.17.03 3.84.59 4.93 1.75 5.17 2.08.22.31.89 1.59.25 5.05Z"/>
      <path class="cls-20" d="M496.31 327.46c-.68-1.92-2.1-3.48-3.94-4.35-24.15-11.44-49.33-21.24-74.84-29.13-3.23-1-6.73.24-8.62 3.04-1.89 2.8-1.72 6.51.41 9.13 2.79 3.42 5.56 6.9 8.25 10.39l-3.55 10.48 1.57-5.13c.87-2.83.03-5.92-2.16-7.91-2.19-2-5.34-2.56-8.08-1.43-6.11 2.5-12.22 5.15-18.19 7.89-4.18-1.11-8.41-2.18-12.63-3.19l2.69-11.97c4.1-1.61 8.26-3.17 12.41-4.67 3.17-1.14 5.22-4.23 5.06-7.59-.17-3.37-2.51-6.23-5.78-7.06-16.28-4.11-32.92-7.53-49.49-10.16-.33-.05-.66-.07-.99-.08-2.15-1.49-4.91-1.8-7.34-.78-1.48.62-2.95 1.25-4.42 1.88-6.57-3.81-14.14-6.14-22.58-6.94-11.69-1.11-22.48.99-32.06 6.23-5.74 3.15-9.53 6.63-12 10.08l.04-11.6c0-2.46-1.16-4.77-3.15-6.22-1.98-1.45-4.54-1.86-6.88-1.11-2.9.94-5.83 1.91-8.74 2.9-6.78-2.22-14.34-3.12-22.48-2.66-8.66.49-15.73 2.59-21.08 6.2-1.57-1.38-3.67-2.1-5.84-1.87-13.08 1.37-26.29 3.22-39.26 5.5-.39.07-.77.17-1.14.29-.39.01-.77.05-1.16.12-15.15 2.73-30.35 6.13-45.25 10.11-.03 0-.07 0-.1.02l-.75.21-1.92.51c-.09.02-.17.07-.27.1-13.64 3.72-27.28 7.98-40.59 12.71-2.96 1.05-4.97 3.8-5.09 6.93-.03.66-.05 1.33-.07 1.99-.5-.52-1.01-1.04-1.51-1.56-2.15-2.21-5.41-2.93-8.28-1.81-13.03 5.05-26.03 10.66-38.64 16.66-3.06 1.46-4.8 4.75-4.28 8.1.52 3.35 3.17 5.96 6.53 6.42 4.39.61 8.83 1.28 13.23 2.02l5.84 13.17c-2.26 3.83-4.47 7.7-6.61 11.56-1.62 2.92-1.16 6.54 1.12 8.97 1.48 1.58 3.52 2.42 5.59 2.42 1.12 0 2.24-.24 3.29-.75 10.99-5.23 22.31-10.13 33.65-14.56.18-.07.35-.14.52-.22.18-.06.36-.12.54-.19 3.06-1.19 6.18-2.36 9.29-3.5.16-.06.31-.12.46-.19.16-.05.32-.1.47-.15 13.85-5.03 28.08-9.5 42.31-13.3 3.21-.86 5.5-3.68 5.68-7 .11-2.04-.61-3.99-1.89-5.46 2.45 2.17 5.8 4.1 10.41 5.4 3.79 1.08 7.9 1.61 12.4 1.61 4.03 0 8.38-.43 13.09-1.3 10.42-1.91 17.56-4.72 22.47-8.85 5.94-5 8.53-11.93 7.47-20.04l-1.82-13.85c.16-.14.33-.28.49-.43.27 2.53 1.06 5.43 2.92 8.25 0 .22.01.44.04.66l2.05 21.02c.25 2.56 1.77 4.83 4.05 6.04 1.12.59 2.35.89 3.58.89s2.54-.32 3.69-.95c2.13-1.17 4.28-2.33 6.42-3.46 8.36 2.05 16.23 2.93 23.98 2.68 8.86-.28 15.87-2.05 21.41-5.43 3.46-2.11 5.82-4.53 7.41-7.01 1.81 1.74 3.94 3.4 6.37 4.97 8.23 5.33 17.82 8.45 29.31 9.56 2.7.26 5.27.39 7.72.39 6.72 0 12.51-1 17.57-2.99 1.05 2.31 3.17 4.01 5.76 4.42 23.28 3.7 46.5 9.08 69.01 15.99.2.06.41.09.61.14.18.07.35.16.54.21 23.26 7.19 46.21 16.15 68.2 26.63 1.06.51 2.19.75 3.29.75 2.87 0 5.62-1.61 6.93-4.37l8.79-18.46c.63-1.32.85-2.76.7-4.15l7.57-15.98c.87-1.84.97-3.95.29-5.86Z"/>
      <path class="cls-32" d="M49.28 314.11c4.82 4.97 9.57 10 14.23 15.08.09-6.84.26-13.69.52-20.56 14.17-5.04 28.49-9.49 42.94-13.34-3.88 4.43-7.67 8.89-11.37 13.4 2.12 7.19 4.25 14.37 6.37 21.56 5.36 1.84 10.65 3.77 15.87 5.77-14.46 3.86-28.79 8.36-42.95 13.5 2.92-4.55 5.93-9.09 9.04-13.59-2.89-8.64-5.79-17.28-8.68-25.91-.77 13.33-1.2 26.62-1.3 39.85-3.15 1.15-6.29 2.34-9.43 3.55-8.66-9.45-17.61-18.72-26.84-27.79 3.35 7.98 6.7 15.97 10.04 23.95 5.3 1.34 10.55 2.76 15.73 4.26-11.52 4.5-22.91 9.42-34.16 14.78 2.74-4.94 5.58-9.86 8.52-14.76l-9.12-20.55c-5.78-1.01-11.62-1.93-17.52-2.75 12.55-5.97 25.26-11.45 38.11-16.44Z"/>
      <path class="cls-32" d="M192.69 279.46c-4.49 3.76-8.9 7.58-13.21 11.44.78 5.96 1.56 11.92 2.35 17.88.72 5.54-.92 9.9-4.8 13.18-3.89 3.28-10.18 5.58-18.91 7.18-8.61 1.58-15.89 1.59-22.01-.15-6.11-1.73-9.8-4.88-10.96-9.6-1.43-5.84-2.85-11.68-4.28-17.52-5.44-2.04-10.96-4-16.54-5.87 15.66-4.26 31.47-7.83 47.37-10.7-3.77 4.01-7.46 8.05-11.07 12.13 1.08 5.24 2.15 10.49 3.23 15.73.7 3.39 2.25 5.63 4.64 6.75 2.39 1.12 5.85 1.24 10.42.42 4.71-.84 8.01-2.17 9.93-4.07 1.91-1.9 2.62-4.54 2.11-7.94-.8-5.29-1.61-10.58-2.41-15.88-4.79-2.58-9.64-5.11-14.57-7.56 12.85-2.26 25.77-4.07 38.72-5.43Zm8.05 43.23c-.68-7.01-1.37-14.02-2.05-21.02 3.81 3.97 8.72 6.91 14.72 8.92 6.01 2.01 12.46 2.86 19.46 2.62 7.36-.24 11.04-1.37 11.01-3.63-.01-1.05-.52-1.75-1.52-2.09-1-.34-3.4-.65-7.21-.87-2.74-.16-5.48-.29-8.23-.4-9.58-.37-16.42-1.11-20.54-2.55-6.54-2.28-10.14-5.9-10.67-11.05-.49-4.83 1.3-8.85 5.47-12 4.17-3.14 10.22-5.02 18.05-5.46 7.54-.42 14.37.45 20.37 2.53.56.19 1.11.39 1.66.59 3.68-1.28 7.38-2.52 11.11-3.72-.02 5.94-.04 11.88-.05 17.82-10.09-7.24-21.26-10.59-32.91-9.93-7.02.41-10.45 1.82-10.27 4.05.08 1.05.99 1.77 2.71 2.19 1.73.42 4.93.66 9.61.82 2.76.09 5.51.2 8.27.33 10.37.52 17.28 1.87 20.76 3.67 5.83 3.05 8.63 7.2 8.54 12.3-.08 4.57-2.38 8.16-6.8 10.85-4.43 2.69-10.28 4.08-17.66 4.31-7.92.25-16.08-.83-24.68-3.18-3.08 1.61-6.13 3.24-9.16 4.9ZM334.06 282c-.98 6.51-1.97 13.03-2.95 19.54-4.59-9.22-13.17-14.71-25.36-15.95-12.24-1.2-18.68 3.41-19.3 13.23-.33 4.93 1.03 8.6 4 11.03 2.98 2.44 7.94 3.94 14.91 4.67 6.58.69 12.19.19 16.92-1.62 4.73-1.8 7.29-4.41 7.6-7.93.02-.14.02-.34 0-.59 1.76 1.49 2.46 3.34 2.12 5.54-.79 5.05-4.18 8.67-10.03 11.03-5.86 2.36-13.11 3.01-21.91 2.16-10.11-.98-18.65-3.69-25.88-8.37-7.22-4.67-10.9-9.89-10.76-15.91.14-6.1 4.14-11.52 12.3-16 8.15-4.46 17.48-6.28 27.65-5.32 8.79.83 16.4 3.54 22.62 7.97 2.67-1.18 5.37-2.34 8.08-3.48Zm74.2 37.63-6.62 21.58c-23.03-7.06-46.44-12.47-70.05-16.23 4.95-2.51 9.97-4.94 15.07-7.3 1.37-7.38 2.75-14.76 4.12-22.13-4.1-4.11-8.28-8.18-12.57-12.2 16.38 2.6 32.66 5.95 48.81 10.02-5.54 2-11.01 4.08-16.4 6.25-1.75 7.78-3.5 15.57-5.25 23.35 7.52 1.69 15.02 3.55 22.47 5.57 6.67-3.1 13.48-6.08 20.41-8.92Zm80.83 10.41-7.8 16.47c-2.84-5.5-5.79-10.98-8.85-16.44-8.62-3.8-17.3-7.36-26.06-10.69-1.09 2.87-2.18 5.73-3.27 8.6 4.73 1.8 9.44 3.67 14.12 5.61 3.96-.15 7.94-.24 11.94-.29-2.54 5.81-5.08 11.62-7.61 17.43-2.46-3.16-4.96-6.31-7.51-9.43-4.62-1.91-9.25-3.75-13.91-5.52-1.11 2.91-2.21 5.81-3.32 8.72 8.33 3.17 16.59 6.56 24.78 10.17 6.32-1.62 12.73-3.13 19.23-4.5-2.93 6.15-5.86 12.31-8.79 18.46-22.55-10.74-45.7-19.75-69.24-27.03 5.3-1.77 10.66-3.45 16.09-5.05 2.42-7.14 4.83-14.27 7.25-21.41-3.53-4.64-7.16-9.25-10.88-13.81 25.09 7.76 49.77 17.34 73.83 28.73Z"/>
      <path class="cls-20" d="M440.15 350.97c-1.28-1.72-3.33-2.71-5.39-2.61-2.98.09-6 .2-8.99.33-5.41-4.28-11.96-7.48-19.49-9.51-8.55-2.3-16.01-2.24-22.18.18-3.41 1.34-6.7-.77-8.88 1.85-.71-1.12-.53-.5-1.39-1.59-3.06-3.81-7.04-4.36-10.86-6.32-3.67-1.88-8.65-3.34-14.79-4.35-16.43-2.7-33.17-4.73-49.76-6.01-2.79-.22-5.38 1.37-6.47 3.93-.1.24-.19.48-.26.73-3.24-2.47-7.24-4.17-11.93-5.08-.15-.03-.3-.05-.45-.07-2.96-.36-5.93-.71-8.91-1.02-.18-.02-.35-.03-.52-.03-2.32-.06-4.65-.1-6.94-.13-15.28-.26-30.79.09-46.12 1.04-.53.03-1.06.13-1.57.3-.53-.1-1.07-.13-1.62-.1-23.15 1.56-46.56 4.56-69.58 8.92-.11.01-.23.02-.34.05-.38.07-.75.15-1.13.22l-1.89.37c-.44.08-.88.16-1.31.25-.12.02-.24.06-.36.09-11.46 2.27-22.77 4.86-33.6 7.68-1.85.48-3.34 1.73-4.16 3.36-.1-.06-.2-.11-.3-.17-1.51-.87-3.33-1.11-5-.64-10.98 3.05-22.01 6.47-32.79 10.16-2.65.91-4.41 3.4-4.39 6.2.03 2.8 1.83 5.26 4.5 6.12 4.38 1.41 8.82 2.91 13.22 4.46l5.3 16.8c-2.56 3.86-5.07 7.76-7.48 11.62-1.45 2.32-1.28 5.33.42 7.47 1.24 1.56 3.09 2.46 5.08 2.46.71 0 1.42-.12 2.1-.35 11.17-3.83 22.61-7.32 34-10.38 1.68-.45 3.07-1.55 3.91-2.98 1.46.86 3.21 1.12 4.87.7 5.74-1.44 11.6-2.8 17.4-4.05 1.57-.34 2.97-1.26 3.91-2.56 1.35.81 3.03 1.12 4.59.8 22.34-4.42 45.19-7.41 67.93-8.9.3-.02.6-.06.92-.13.34.03.66.03.96.01 14.25-.88 28.68-1.18 42.84-.91h.18c1.56 0 3.05-.57 4.2-1.55 1.12 1.07 2.62 1.72 4.25 1.78 7.44.26 15.1.71 22.77 1.31 14.39 1.13 28.85 2.87 42.98 5.17 3.48.56 6.82.85 9.92.85h.02c6.15 0 11.58-1.06 16.62-3.26.96-.42 1.89-.87 2.78-1.36l-.99 4.3c-.5 2.19.14 4.44 1.73 6.03 1.58 1.59 3.84 2.24 6.02 1.75 2.31-.52 4.66-1.03 7.01-1.52 6.89 4.67 13.73 7.98 20.88 10.08 4.69 1.38 8.89 2.05 12.85 2.05 2.9 0 5.68-.38 8.27-1.12 6.99-2.01 11.88-6.55 14.14-13.11 1.34-3.9 2.13-9.84-1.43-16.37l5.71-17.34c.66-2.01.3-4.22-.96-5.91Zm-96.19 12.78c-.44.15-2.45.61-8.21-.27-.76-.12-1.52-.23-2.28-.34l2.03-14.96c.9.13 1.8.27 2.69.4 3.39.52 5.75 1.6 6.83 3.11 1.02 1.43 1.25 3.83.68 6.95-.65 3.58-1.52 4.84-1.74 5.11Z"/>
      <path class="cls-32" d="M438.87 356.14c.42-1.28.19-2.68-.61-3.76-.8-1.08-2.09-1.71-3.43-1.66-3.26.09-6.57.22-9.85.37l-.1-.09c-5.26-4.31-11.73-7.52-19.22-9.54-8.05-2.17-15.02-2.14-20.71.1-4.25 1.67-7.43 4.49-9.46 8.24-1.02-2.12-2.35-4.23-4-6.33-2.85-3.55-6.08-6.26-9.6-8.07-3.45-1.77-8.2-3.15-14.1-4.12-16.36-2.69-33.03-4.71-49.56-5.99-1.77-.13-3.43.87-4.12 2.5s-.27 3.53 1.06 4.7c3.74 3.32 7.48 6.73 11.14 10.17l-2.03 19.93c-2.79 1.81-5.57 3.68-8.33 5.56-1.21-1.08-2.42-2.16-3.64-3.23-1.45-4.71-3.13-8.19-5.12-10.62-.16-.19-.32-.38-.48-.56 6.22-2.31 9.55-6.18 9.94-11.58.21-2.93-.47-7.29-4.85-11.38-3.17-2.96-7.38-4.96-12.52-5.96-.09-.02-.19-.03-.28-.04-2.95-.36-5.9-.7-8.86-1.02-.11-.01-.23-.02-.34-.02-2.31-.06-4.63-.1-6.92-.12-15.26-.26-30.7.09-45.93 1.03-.56.03-1.08.19-1.56.42-.51-.18-1.06-.26-1.62-.22-23.21 1.57-46.54 4.57-69.41 8.9-.08.01-.16.01-.24.03-.68.13-1.36.27-2.04.4-.76.15-1.52.28-2.28.43-.09.02-.17.05-.25.07-11.24 2.23-22.51 4.79-33.58 7.67-1.72.45-2.96 1.95-3.08 3.72-.03.38 0 .75.08 1.12-1.07-.63-2.15-1.27-3.23-1.89-.96-.56-2.11-.71-3.18-.41-10.93 3.04-21.92 6.45-32.65 10.12-1.68.58-2.81 2.17-2.79 3.94.02 1.78 1.17 3.35 2.86 3.89 4.79 1.54 9.62 3.18 14.39 4.87l6 19c-2.75 4.13-5.46 8.33-8.07 12.5-.93 1.48-.82 3.39.27 4.76.8 1.01 2 1.56 3.23 1.56.45 0 .9-.07 1.34-.22 11.22-3.84 22.71-7.35 34.15-10.42 1.69-.45 2.91-1.92 3.04-3.66.03-.32.01-.65-.04-.96.81.56 1.62 1.13 2.43 1.7.98.69 2.22.92 3.38.63 5.79-1.45 11.67-2.82 17.47-4.06 1.07-.23 2.01-.88 2.6-1.8.59-.92.8-2.04.57-3.11l-6.81-31.69c2.01-2.34 4.05-4.67 6.11-6.99 2.76 1.37 5.52 2.76 8.25 4.18l3.42 19.77c-3.24 3.68-6.46 7.44-9.58 11.19-1.12 1.34-1.27 3.25-.37 4.75.75 1.27 2.11 2.02 3.55 2.02.27 0 .53-.03.8-.08 22.44-4.44 45.4-7.44 68.23-8.94.32-.02.62-.09.92-.18.31.05.63.08.96.06 14.29-.88 28.79-1.19 43.09-.91h.08c1.71 0 3.25-1.06 3.86-2.67.32-.86.35-1.77.11-2.61.24.79.49 1.63.74 2.51.49 1.72 2.03 2.93 3.83 3 7.59.27 15.27.72 22.87 1.32 14.4 1.14 28.92 2.88 43.18 5.19 3.37.55 6.55.82 9.56.82 5.8 0 10.98-1.02 15.67-3.06 2.87-1.25 5.34-2.8 7.39-4.63l-2.35 10.26c-.32 1.38.1 2.83 1.1 3.84 1 1.01 2.44 1.43 3.83 1.11 2.65-.6 5.34-1.18 8.03-1.74 6.96 4.83 13.86 8.22 21.04 10.33 4.43 1.31 8.47 1.96 12.18 1.96 2.7 0 5.23-.34 7.61-1.03 6.22-1.79 10.56-5.8 12.56-11.61 1.31-3.83 1.87-9.33-1.78-15.35.04-.1.08-.19.11-.3l5.94-18.03Zm-226.96-5.21c-2.28 2.31-4.54 4.66-6.78 7.01l-1.23-13c2.7 1.98 5.38 3.98 8.01 5.99Zm8.87.8c-.07-1.09-.56-2.08-1.34-2.78.04-.28.05-.57.03-.86l-.9-13.39c2.95 2 5.89 4.03 8.79 6.08l.76 19.97c-2.14 1.87-4.27 3.77-6.38 5.68l-.96-14.69Zm45.3 17.82c-3.72-3.16-7.53-6.31-11.35-9.38v-.69c1.51 0 3.02.02 4.52.03 2.83.03 3.78.67 3.87.84.94 1.77 2.39 5.08 4.22 11.09-.23-.72-.66-1.38-1.26-1.9Z"/>
      <path class="cls-20" d="M97.67 348.88c9.76 5.68 19.24 11.6 28.43 17.74-1.05-4.47-2.1-8.95-3.15-13.42-5.24-2.35-10.55-4.63-15.93-6.84 12.55-3.27 25.18-6.1 37.87-8.51-3.89 4.29-7.7 8.62-11.41 12.99 2.41 11.23 4.82 22.46 7.24 33.69-5.89 1.26-11.76 2.63-17.61 4.1-9.2-6.47-18.71-12.71-28.52-18.69 1.42 4.81 2.84 9.62 4.25 14.43 5.2 2.12 10.32 4.31 15.38 6.57-11.56 3.11-23.04 6.61-34.42 10.5 2.94-4.71 5.98-9.39 9.1-14.04-2.4-7.62-4.81-15.23-7.21-22.85-5.41-1.95-10.9-3.82-16.44-5.61 10.73-3.67 21.54-7.02 32.42-10.05Z"/>
      <path class="cls-20" d="M214.04 328.99c.44 6.46.87 12.91 1.31 19.37-4.81-3.69-9.72-7.32-14.72-10.88-8.71.8-17.41 1.8-26.09 3 .45 3.24.9 6.48 1.34 9.71 4.69-.65 9.38-1.24 14.07-1.77 3.14-2.12 6.32-4.21 9.53-6.28.64 6.73 1.27 13.45 1.91 20.18-3.45-1.72-6.93-3.41-10.44-5.07-4.62.52-9.24 1.1-13.85 1.74.45 3.28.91 6.56 1.36 9.84 8.24-1.14 16.51-2.09 24.79-2.85 4.35-4.72 8.82-9.38 13.4-13.99.47 7.25.95 14.49 1.42 21.74-23.04 1.51-46.01 4.51-68.76 9.01 3.52-4.23 7.12-8.42 10.81-12.58-1.37-7.91-2.74-15.82-4.1-23.74-5.07-2.65-10.21-5.24-15.42-7.75 24.3-4.8 48.82-8.03 73.43-9.69Zm3.16-.2c15.19-.94 30.4-1.28 45.61-1.03 2.3.03 4.6.07 6.9.12 2.94.32 5.87.65 8.8 1.01 4.4.85 7.9 2.51 10.49 4.93s3.76 5.12 3.55 8.07c-.41 5.71-5.92 8.87-16.43 9.93 3.5 1.24 6.13 2.96 7.89 5.11 1.76 2.15 3.34 5.6 4.7 10.33 2.69 2.35 5.35 4.73 7.98 7.12-8.19-.67-16.39-1.15-24.6-1.44-1.87-6.59-3.67-11.42-5.31-14.52-1.03-1.95-3.53-2.99-7.47-3.03-2.91-.03-5.81-.04-8.72-.03l.03 6.81c4.35 3.46 8.61 6.97 12.79 10.53-14.48-.28-28.96.03-43.42.92 4.03-3.73 8.14-7.42 12.34-11.06-.3-7.99-.61-15.98-.91-23.97-4.65-3.33-9.39-6.59-14.21-9.8Zm33.33 17.69c3.98-.02 7.95 0 11.93.07h3.71c4.02.1 6.08-1.46 6.2-4.73.07-2.13-.55-3.58-1.86-4.36-1.32-.77-3.92-1.22-7.82-1.29-4.07-.07-8.14-.09-12.2-.08.02 3.46.03 6.91.05 10.37Z"/>
      <path class="cls-20" d="M297.9 329.42c16.46 1.28 32.88 3.26 49.21 5.94 5.59.92 9.89 2.19 12.89 3.73s5.77 3.87 8.26 6.98c4.8 6.07 6.42 12.09 5.12 17.95-1.4 6.28-5.39 10.73-11.82 13.53-6.44 2.8-14.01 3.4-22.93 1.95-14.67-2.38-29.42-4.14-44.21-5.29 4.51-3.13 9.1-6.2 13.76-9.21.81-7.98 1.62-15.95 2.43-23.93-4.15-3.93-8.39-7.81-12.72-11.65Zm28.27 39.24c2.87.39 5.74.8 8.6 1.24 6.05.92 10.2.79 12.49-.54 2.29-1.32 3.9-4.5 4.82-9.55 1.84-9.99-2.44-16.02-12.9-17.63-3.07-.47-6.15-.91-9.23-1.33l-3.78 27.81Zm46.1 19.22c1.68-7.31 3.36-14.63 5.04-21.94 2.13 5.22 5.59 9.73 10.36 13.62 4.77 3.89 10.32 6.73 16.76 8.6 6.77 1.98 10.48 1.93 11.2-.36.33-1.07.1-1.93-.69-2.58-.8-.65-2.88-1.68-6.27-3.05-2.44-.99-4.88-1.95-7.33-2.9-8.56-3.29-14.49-6.16-17.74-8.9-5.15-4.34-7.21-9.14-6-14.52 1.14-5.05 4.07-8.56 8.87-10.44 4.79-1.88 10.88-1.91 18.13.05 6.98 1.88 12.9 4.83 17.67 8.75.44.36.88.73 1.32 1.09 3.77-.19 7.56-.34 11.37-.45l-5.94 18.03c-6.82-10.33-15.89-17.09-26.66-19.99-6.5-1.74-10.05-1.37-10.63.94-.27 1.09.31 2.1 1.73 3.05 1.42.95 4.24 2.2 8.43 3.79 2.47.93 4.93 1.89 7.39 2.85 9.25 3.67 15.11 7.1 17.68 9.96 4.31 4.82 5.5 9.85 3.74 14.99-1.58 4.61-4.87 7.57-9.79 8.98-4.93 1.42-10.71 1.08-17.49-.92-7.27-2.14-14.29-5.72-21.29-10.78-3.31.67-6.59 1.38-9.86 2.11Z"/>
      <path class="cls-32" d="M210.51 80.69c.09.25.19.5.29.74 2.74-4.27 8.98-11.16 22.15-15.48-2.29-.72-4.65-1.19-7.03-1.58-1.48-.24-2.98-.35-4.42-.51-1.43-.02-2.8-.03-4.17-.05-1.55-.03-3.09.15-4.6.54-1.11.28-2.18.71-2.85 1.77-.57.9-.77 1.96-.91 3.01-.21 1.53-.06 3.05.1 4.57.25 2.39.65 4.73 1.44 6.99Z"/>
      <path class="cls-32" d="M211.38 82.65c.94 1.72 2.26 3.1 4.06 4.05 2.51 1.33 5.22 1.96 7.99 2.31 2.13.27 4.27.13 6.39-.3 2.2-.44 4.09-1.51 5.77-3.01 1.17-1.05 2.1-2.34 2.9-3.73 1.1-1.91 1.9-3.95 2.3-6.13.22-1.17.25-2.38.34-3.57.02-.26-.02-.54-.08-.79 0 0-14.38-3.6-29.67 11.16Zm45.35-.33.09.24c2.13-3.75 7.47-10.66 19.54-15.43-.84-.03-1.67-.06-2.51-.07-1.24-.03-2.48 0-3.71.14-2.14.25-4.28.55-6.4.95-1.86.35-3.67.9-5.37 1.82-1.25.67-2.06 1.71-2.49 3.12-.45 1.46-.41 2.93-.23 4.4.2 1.65.49 3.28 1.08 4.84Z"/>
      <path class="cls-32" d="M287.71 71.48c-.79-.18-15.33-3.3-30.51 12.03.47 1.16 1.01 2.28 1.78 3.26.93 1.19 1.97 2.26 3.27 2.97 2.39 1.29 4.95 1.97 7.64 2.18.5 0 1-.02 1.5-.02 2.15 0 4.27-.25 6.36-.85 3.26-.93 5.68-2.92 7.19-6.11 1.17-2.45 1.98-5.03 2.46-7.72.25-1.44.52-2.88.49-4.37 0-.5-.07-.96-.18-1.39Z"/>
      <path class="cls-25" d="M219.59 89.18c5.06 1.08 10.02.64 14.97-1.32-2.35 2.05-11.77 2.85-14.97 1.32Z"/>
      <path class="cls-20" d="M251.42 78.42c-.61-5.14-2.64-9.69-6.09-13.74 2.7 1.56 6.5 10.21 6.09 13.74Zm-4.75-.94c.86-4.06.19-7.99-1.98-11.88 2.16 1.82 3.37 9.29 1.98 11.88Z"/>
      <path class="cls-25" d="M258.89 103.45s.02-.08.03-.11c-.13-.07-.24-.17-.38-.21-.63-.18-1.27-.35-1.93-.3-.4.03-.79.12-1.18.15-.52.04-1.06-.01-1.55.09-.63.13-1.26.04-1.88.11-.31.04-.64-.07-.96-.03-.7.09-1.38-.09-2.06-.16-.72-.07-1.4-.31-2.08-.55-.93-.32-1.87-.62-2.78-1.02-.65-.29-1.37-.36-2.02-.68-.53-.26-1.1-.45-1.64-.68-.34-.15-.67-.34-1.02-.48-.34-.14-.71-.25-1.05-.39-.28-.11-.55-.26-.82-.39-.19-.09-.39-.18-.58-.26-.26-.12-.54-.22-.79-.36-.24-.13-.48-.19-.75-.14-.16.03-.34.08-.49.04-.49-.12-.88.06-1.26.31-.19.13-.41.22-.62.32-.2.1-.41.19-.61.28-.16.07-.33.13-.49.19-.13.05-.26.09-.37.16-.32.19-.64.39-.96.6-.09.06-.2.16-.22.26-.05.24.2.38.48.27.23-.09.46-.18.65-.32.6-.44 1.19-.06 1.78.03.02 0 .04.02.05.03.57.36 1.13.72 1.63 1.18.5.46 1.12.82 1.69 1.22.1.07.24.11.35.16.15.07.31.13.45.21.41.25.83.46 1.34.43.17 0 .35.04.52.07.84.14 1.68.31 2.52.41 1.01.13 2.03.2 3.04.29h.17c.61.01 1.22.01 1.83.04.31.02.61.05.9-.06.08-.03.19-.05.28-.03.72.12 1.42.01 2.13-.03.64-.04 1.28-.05 1.91-.11.32-.03.64-.11.96-.17.65-.12 1.32-.2 1.95-.37.65-.18 1.3-.2 1.96-.14.35.03.69.1 1.04.12.27.02.54 0 .81 0Zm-19.08 1.75s-.01.05-.02.08c.2.21.45.35.73.42.53.13 1.06.25 1.6.34.67.1 1.34.22 2.02.23.85 0 1.69-.08 2.54-.14.63-.05 1.25-.14 1.88-.2.64-.06 1.29-.09 1.93-.15.13-.01.25-.08.37-.12 0-.03-.01-.05-.02-.08-.45-.09-.92-.13-1.38-.09-.33.03-.65.15-.97.19-.38.04-.77.04-1.15.05-.38.02-.77.05-1.15.06-.64.02-1.29.04-1.94.04-.46 0-.92 0-1.37-.07-.87-.15-1.72-.36-2.59-.54-.16-.03-.32-.02-.48-.03Zm-2.05-.58c.47.24.9.62 1.5.47-.22-.17-.49-.24-.76-.28-.19-.03-.38-.1-.57-.15-.06-.01-.11-.03-.17-.04Z"/>
      <path class="cls-33" d="M244.25 106.39h-.12c-.62 0-1.24-.1-1.84-.2l-.19-.03c-.53-.08-1.06-.21-1.57-.33h-.03c-.31-.08-.58-.24-.79-.46l-.05-.05.05-.25h.11s.1 0 .15.01c.11 0 .23 0 .35.03.31.06.62.13.93.2.54.12 1.1.24 1.66.34.39.07.79.07 1.2.07h.19c.58 0 1.17-.02 1.73-.04h.16c.24-.01.47-.02.71-.04.15 0 .29-.02.44-.02.13 0 .26 0 .38-.01.25 0 .51-.01.76-.04.15-.02.3-.05.45-.09.17-.04.34-.08.52-.1.44-.04.92-.01 1.41.09l.08.02.07.27-.11.04s-.07.03-.11.04c-.09.03-.18.07-.29.08-.3.03-.61.05-.91.07-.34.02-.68.05-1.01.08-.28.03-.57.06-.85.09-.34.04-.69.08-1.03.11l-.43.04c-.66.05-1.33.11-2 .11Zm-4.22-1.06c.15.12.33.2.52.25h.03c.51.13 1.03.25 1.55.34l.19.03c.59.09 1.21.19 1.81.19.71 0 1.41-.05 2.1-.11l.43-.04c.34-.03.68-.07 1.02-.11.17-.02.35-.04.52-.06-.17.01-.33.01-.49.02-.13 0-.25 0-.38.01-.15 0-.29.01-.44.02-.24.01-.48.03-.71.03h-.16c-.58.02-1.2.05-1.78.04h-.15c-.41 0-.83 0-1.24-.07-.56-.1-1.12-.22-1.67-.34-.31-.07-.61-.14-.92-.2-.07-.02-.15-.02-.23-.02Zm9.8.27c-.12 0-.25 0-.37.02-.16.02-.32.05-.49.1-.13.03-.26.06-.39.08.32-.03.65-.05.97-.08.3-.02.61-.04.91-.07h.02c-.23-.03-.45-.05-.66-.05Zm-10.84-.35c-.38 0-.69-.18-1-.36-.09-.05-.19-.11-.29-.16l-.97-.49 1.22.3c.06.02.12.03.18.05.13.04.25.07.38.09.26.04.56.11.82.3l.21.16-.25.06c-.11.03-.21.04-.3.04Zm-.1-1.96c.12 0 .25.02.36.05.05 0 .09.02.14.03.26.04.53.09.79.14.56.1 1.15.2 1.72.27.71.09 1.44.15 2.14.21.3.03.6.05.89.08h.7c.42 0 .86.01 1.3.03h.12c.25.02.5.04.72-.06.11-.04.24-.06.35-.04.54.09 1.1.05 1.64 0 .16-.01.31-.02.47-.03.24-.01.48-.02.72-.04.39-.02.8-.04 1.19-.07.21-.02.43-.06.63-.11.1-.02.21-.04.31-.06.2-.04.41-.07.61-.1.44-.07.9-.15 1.33-.26.6-.16 1.24-.21 2-.15.17.01.34.04.51.06.17.02.35.05.52.06.18.01.37 0 .55 0h.04c-.06-.04-.11-.07-.16-.08-.66-.19-1.26-.34-1.89-.3-.2.01-.4.04-.59.07-.19.03-.39.06-.59.07-.2.02-.4.02-.6.02-.33 0-.64 0-.94.07-.37.08-.75.08-1.11.08-.26 0-.53 0-.78.03-.17.02-.34 0-.5-.02-.16-.02-.31-.03-.45-.02-.52.06-1.02 0-1.51-.08-.19-.03-.38-.06-.57-.08-.73-.08-1.43-.32-2.11-.55-.19-.06-.37-.13-.56-.19-.74-.25-1.5-.51-2.23-.83-.29-.13-.6-.21-.92-.3-.37-.1-.74-.2-1.1-.38-.32-.16-.66-.29-.99-.42-.22-.08-.43-.17-.65-.26-.17-.07-.33-.16-.5-.24-.17-.09-.34-.17-.52-.25-.18-.07-.36-.14-.54-.2-.17-.06-.34-.12-.51-.19-.18-.08-.36-.16-.54-.25-.1-.05-.19-.1-.29-.14-.15-.07-.3-.14-.44-.2l-.14-.06c-.08-.04-.16-.07-.24-.1-.18-.08-.37-.16-.55-.25-.24-.13-.44-.17-.67-.12h-.06c-.15.04-.32.08-.48.04-.43-.1-.78.04-1.16.3-.16.1-.33.19-.5.26l-.14.07c-.2.1-.41.19-.62.28l-.3.12c-.06.02-.13.05-.19.07l-.1.04c-.09.03-.18.06-.25.11-.37.22-.67.41-.95.59-.09.06-.15.13-.17.18-.01.05 0 .09.03.12.05.04.15.07.28.01l.04-.02c.2-.08.42-.17.58-.29.49-.36.98-.22 1.41-.1.16.04.31.09.46.11.05 0 .08.03.1.05.62.39 1.16.75 1.65 1.2.36.33.79.62 1.2.89.16.11.32.21.48.32.06.04.13.07.2.1.04.02.09.03.13.05l.12.05c.11.05.23.1.34.17.43.26.81.44 1.27.41h.04Z"/>
      <path class="cls-33" d="M258.99 103.23s-.07-.05-.11-.07c-.09-.06-.18-.12-.3-.16-.68-.2-1.3-.36-1.97-.31-.21.01-.41.05-.61.08-.19.03-.38.06-.57.07-.19.01-.39.02-.58.02-.33 0-.67 0-.99.07-.35.07-.71.07-1.06.08-.26 0-.54 0-.81.03-.14.02-.29 0-.45-.02-.17-.02-.34-.04-.51-.02-.48.06-.97-.01-1.45-.08-.2-.03-.39-.06-.58-.08-.7-.07-1.39-.31-2.06-.54-.19-.06-.37-.13-.56-.19-.73-.25-1.49-.51-2.21-.83-.31-.14-.64-.23-.96-.32-.35-.1-.72-.2-1.05-.36-.33-.16-.68-.3-1.01-.43-.21-.08-.43-.17-.64-.26-.16-.07-.32-.15-.48-.23-.18-.09-.35-.18-.53-.25-.18-.08-.37-.14-.56-.21-.17-.06-.33-.11-.49-.18-.18-.07-.35-.16-.52-.24-.1-.05-.2-.1-.29-.14-.15-.07-.3-.14-.45-.2l-.14-.06c-.08-.04-.16-.07-.25-.11-.18-.08-.36-.15-.53-.24-.29-.16-.52-.16-.83-.15h-.07c-.13.04-.26.03-.37.04-.67.05-.98.08-1.35.33-.14.09-.3.17-.46.24l-.14.07c-.2.1-.4.19-.61.27-.1.04-.2.08-.29.12-.07.02-.13.05-.2.08l-.1.04c-.1.04-.2.07-.29.13-.38.22-.68.41-.96.6-.07.05-.23.17-.27.33-.03.14.01.27.12.36.13.11.34.13.53.06l.04-.02c.22-.09.45-.18.64-.32.39-.29.78-.18 1.2-.06.16.04.32.09.47.11l.03.02c.62.39 1.13.73 1.61 1.17.37.34.81.63 1.23.91.16.1.32.21.47.32.08.06.17.09.26.12.04.02.08.03.12.05l.12.06c.11.05.21.09.31.15.41.25.85.48 1.41.45.11 0 .22.02.35.04.05 0 .1.02.15.03.26.04.53.09.79.14.57.1 1.15.2 1.74.28.72.09 1.45.15 2.15.21.3.03.59.05.89.08h.72c.42 0 .86.01 1.29.03h.12c.1.01.19.02.29.02.18 0 .36-.02.54-.09.07-.03.15-.04.21-.03.58.09 1.15.05 1.7 0 .15-.01.31-.02.46-.03.24-.01.48-.02.71-.04.39-.02.8-.04 1.2-.07.23-.02.45-.07.67-.11.1-.02.2-.04.31-.06.2-.04.4-.07.61-.1.45-.07.91-.15 1.35-.27.58-.16 1.19-.2 1.92-.14.17.01.33.04.5.06.18.02.36.05.54.06.19.01.39 0 .57 0h.34l.08-.3-.08-.05Zm-22.41-2.17c.14-.04.28-.06.44-.08.08-.01.16-.02.23-.03h.04c.1-.02.24-.04.31-.14.03-.04.05-.1.03-.2-.03-.16-.24-.28-.36-.33-.22-.07-.44 0-.59.17-.12.14-.27.19-.49.16-.15-.02-.22-.07-.27-.18-.07-.15-.19-.26-.33-.31-.15-.05-.32-.03-.47.06-.06.03-.09.03-.17-.03-.15-.13-.31-.25-.46-.37l-.12-.09s-.05-.03-.07-.05c-.02-.01-.04-.03-.06-.04-.03-.03-.05-.05-.05-.04 0 0 .03-.02.07-.04.03-.01.06-.01.09-.02l.29-.06c.18-.04.35-.08.53-.1.14-.02.28-.04.4 0l.38.08c.66.15 1.34.3 1.99.49l.32.09c.84.24 1.72.48 2.53.82.42.18.86.31 1.28.44.39.12.79.25 1.17.4.22.09.45.17.67.25.2.07.41.14.61.22l.96.39c.32.13.63.26.95.39.17.07.36.11.56.14.36.04.66.21.97.39.04.02.06.04.07.05-.01.01-.04.03-.07.06-.09.06-.17.1-.25.12-.79.21-1.57.14-2.5.02h-.09c-.07-.02-.14-.03-.21-.04-1.92-.09-3.8-.47-5.22-.79-1.31-.3-2.35-.78-3.16-1.48-.16-.14-.16-.19-.16-.19s.02-.05.22-.1Z"/>
      <path d="M239.81 105.2c.16 0 .33 0 .48.03.86.18 1.72.39 2.59.54.45.08.91.07 1.37.07.65 0 1.29-.02 1.94-.04.38-.01.77-.04 1.15-.06.38-.02.77-.01 1.15-.05.33-.04.65-.16.97-.19.46-.04.92 0 1.38.09 0 .03.01.05.02.08-.12.04-.25.1-.37.12-.64.06-1.29.09-1.93.15-.63.06-1.25.15-1.88.2-.84.07-1.69.15-2.54.14-.67 0-1.35-.12-2.02-.23-.54-.08-1.07-.21-1.6-.34-.28-.07-.53-.21-.73-.42 0-.03.01-.05.02-.08Z"/>
      <path class="cls-33" d="M244.25 106.39h-.12c-.62 0-1.24-.1-1.84-.2l-.19-.03c-.53-.08-1.06-.21-1.57-.33h-.03c-.31-.08-.91-.16-1.12-.38l-.73-.27-.02-.44 1.19.33h.15c.11 0 .23 0 .35.03.31.06.62.13.93.2.54.12 1.1.24 1.66.34.39.07.8.07 1.2.07h.15c.59-.02 1.19-.02 1.77-.04h.16c.24-.01.47-.02.71-.04.15 0 .29-.02.44-.02.13 0 .26 0 .38-.01.25 0 .51-.01.76-.04.15-.02.3-.05.45-.09.17-.04.34-.08.52-.1.44-.04.92-.01 1.41.09l.08.02.07.27-.11.04s-.07.03-.11.04c-.09.03-.18.07-.29.08-.3.03-.61.05-.91.07-.34.02-.68.05-1.01.08-.28.03-.57.06-.85.09-.34.04-.69.08-1.03.11l-.43.04c-.66.05-1.33.11-2 .11Zm-4.22-1.06c.15.12.33.2.52.25h.03c.51.13 1.03.25 1.55.34l.19.03c.59.09 1.21.19 1.81.19.71 0 1.41-.05 2.1-.11l.43-.04c.34-.03.68-.07 1.02-.11.17-.02.35-.04.52-.06-.17.01-.33.01-.49.02-.13 0-.25 0-.38.01-.15 0-.29.01-.44.02-.24.01-.48.03-.71.03h-.16c-.58.02-1.2.05-1.78.04h-.15c-.41 0-.83 0-1.24-.07-.56-.1-1.12-.22-1.67-.34-.31-.07-.61-.14-.92-.2-.07-.02-.15-.02-.23-.02Zm9.8.27c-.12 0-.25 0-.37.02-.16.02-.32.05-.49.1-.13.03-.26.06-.39.08.32-.03.65-.05.97-.08.3-.02.61-.04.91-.07h.02c-.23-.03-.45-.05-.66-.05Z"/>
      <path class="cls-25" d="M245.17 103.79c-.09-.01-.19-.03-.28-.04-1.78-.08-3.52-.4-5.24-.79-1.17-.27-2.29-.72-3.21-1.51-.29-.25-.27-.41.11-.51.22-.06.46-.19.68-.12 1.25.39 1.15.28.27-.19-.09-.05-.17-.2-.28-.24-.16-.06-.34-.01-.45.13-.16.19-.36.23-.6.2-.18-.02-.29-.09-.37-.25-.12-.25-.38-.33-.63-.19-.13.07-.21.04-.31-.05-.19-.16-.39-.31-.58-.46-.05-.04-.1-.06-.14-.1-.14-.12-.11-.23.06-.29.05-.02.11-.02.17-.03.25-.05.51-.11.76-.15.15-.02.31-.04.45 0 .79.18 1.59.35 2.37.57.96.27 1.94.54 2.86.92.8.33 1.64.52 2.44.84.42.17.86.3 1.28.47.64.25 1.27.53 1.91.78.17.07.35.11.53.13.38.04.7.22 1.02.41.2.12.2.19 0 .32-.09.06-.18.11-.29.14-.84.23-1.7.13-2.55.02Zm-6.58-2.25c.05-.02.1-.03.14-.05.01-.01 0-.08 0-.09-.19-.12-.38-.24-.58-.33-.03-.02-.13.05-.17.09-.02.02.04.12.08.15.17.09.36.16.54.24Z"/>
      <path d="M238.59 101.53c-.19-.08-.37-.15-.54-.24-.04-.02-.82-.58-.8-.61.14-.18.93.26.89.37-.08.21.39.22.58.33.02.01 1.01.33.99.34-.03.03-1.07-.21-1.12-.2Z"/>
    </g>
  </g>
</svg>
